<?xml version="1.0" standalone="no"?>
<!DOCTYPE svg PUBLIC "-//W3C//DTD SVG 1.1//EN" "http://www.w3.org/Graphics/SVG/1.1/DTD/svg11.dtd" >
<svg xmlns="http://www.w3.org/2000/svg">
    <defs>
        <font id="">
            <font-face font-family=""
                       units-per-em="256"
                       ascent="229"
                       descent="-64"
                       bbox="-14 -64 269 229"
                    />
            <missing-glyph horiz-adv-x="0" />
            
            <glyph glyph-name="&quot;" unicode="&#x22;" horiz-adv-x="86" d=" M40,192 L35,121 L18,121 L13,192 M86,192 L81,121 L64,121 L58,192"/> 
            <glyph glyph-name="+" unicode="&#x2B;" horiz-adv-x="153" d=" M153,100 L153,81 L94,81 L94,22 L74,22 L74,81 L15,81 L15,100 L74,100 L74,159 L94,159 L94,100"/> 
            <glyph glyph-name="." unicode="&#x2E;" horiz-adv-x="57" d=" M57,-8 L26,-8 L26,21 L57,21"/> 
            <glyph glyph-name="0" unicode="&#x30;" horiz-adv-x="144" d=" M77,176 Q36,173 35,90 Q35,4 78,5 Q121,4 121,90 Q121,177 77,176 M79,-12 Q12,-11 12,90 Q13,191 78,194 Q143,192 144,90 Q143,-10 79,-12"/> 
            <glyph glyph-name="2" unicode="&#x32;" horiz-adv-x="142" d=" M140,-7 L9,-7 L9,6 Q28,46 72,78 Q117,111 116,138 Q115,174 75,175 Q44,173 33,136 L13,146 Q30,195 79,194 Q135,192 139,141 Q142,102 89,66 Q48,36 35,10 L140,10"/> 
            <glyph glyph-name="3" unicode="&#x33;" horiz-adv-x="143" d=" M9,41 L32,47 Q38,6 75,6 Q120,6 120,48 Q117,84 74,86 Q60,86 56,86 L56,104 Q60,104 66,104 Q109,105 111,142 Q109,174 77,175 Q43,174 36,137 L14,144 Q26,193 76,194 Q133,192 135,142 Q134,109 101,97 Q141,85 143,46 Q140,-9 77,-12 Q21,-12 9,41"/> 
            <glyph glyph-name="6" unicode="&#x36;" horiz-adv-x="144" d=" M33,67 Q34,6 81,4 Q119,6 121,54 Q120,102 81,103 Q42,101 33,67 M140,149 L120,142 Q112,177 82,176 Q32,175 32,93 Q48,120 84,121 Q140,118 144,56 Q140,-7 81,-12 Q10,-12 10,85 Q11,194 83,194 Q127,192 140,149"/> 
            <glyph glyph-name="7" unicode="&#x37;" horiz-adv-x="143" d=" M65,-9 L41,-9 Q56,82 116,170 L13,170 L13,190 L143,190 L143,176 Q78,86 65,-9"/> 
            <glyph glyph-name="?" unicode="&#x3F;" horiz-adv-x="143" d=" M87,-8 L61,-8 L61,17 L87,17 M85,42 L64,42 Q64,47 64,52 Q63,80 90,99 Q121,120 118,144 Q114,173 82,176 Q41,178 33,135 L12,142 Q25,197 84,195 Q137,192 141,143 Q143,112 105,86 Q84,72 85,51 Q85,45 85,42"/> 
            <glyph glyph-name="A" unicode="&#x41;" horiz-adv-x="188" d=" M56,71 L131,71 L98,156 Q97,161 94,170 Q91,161 89,156 M164,-9 L139,52 L48,52 L24,-9 L0,-9 L81,191 L105,191 L188,-9"/> 
            <glyph glyph-name="I" unicode="&#x49;" horiz-adv-x="48" d=" M26,-9 L26,191 L48,191 L48,-9"/> 
            <glyph glyph-name="°" unicode="&#xB0;" horiz-adv-x="89" d=" M51,188 Q29,185 26,162 Q29,138 51,135 Q73,137 76,162 Q73,186 51,188 M89,162 Q86,127 51,124 Q17,127 14,162 Q17,196 51,199 Q86,196 89,162"/> 
            <glyph glyph-name="、" unicode="&#x3001;" horiz-adv-x="104" d=" M37,36 L52,48 L104,-9 L88,-23"/> 
            <glyph glyph-name="一" unicode="&#x4E00;" horiz-adv-x="249" d=" M6,82 L6,108 L249,108 L249,82"/> 
            <glyph glyph-name="七" unicode="&#x4E03;" horiz-adv-x="247" d=" M11,90 L8,114 L88,125 L88,209 L114,209 L114,128 L244,145 L247,122 L114,104 L114,29 Q112,1 142,3 L186,3 Q209,2 212,24 Q214,32 217,59 Q222,57 243,50 Q242,42 239,27 Q237,17 236,11 Q230,-20 189,-19 L134,-19 Q87,-20 88,23 L88,100"/> 
            <glyph glyph-name="三" unicode="&#x4E09;" horiz-adv-x="246" d=" M25,164 L25,188 L230,188 L230,164 M9,-11 L9,12 L246,12 L246,-11 M36,79 L36,103 L219,103 L219,79"/> 
            <glyph glyph-name="下" unicode="&#x4E0B;" horiz-adv-x="247" d=" M9,169 L9,193 L247,193 L247,169 L130,169 L130,107 L145,125 Q191,99 234,72 L218,50 Q179,76 130,106 L130,-27 L104,-27 L104,169"/> 
            <glyph glyph-name="为" unicode="&#x4E3A;" horiz-adv-x="235" d=" M28,-30 Q27,-28 24,-25 Q15,-14 10,-9 Q96,42 102,127 L15,127 L15,149 L105,149 Q107,178 108,211 L133,211 Q133,196 131,166 Q130,155 130,149 L235,149 Q234,132 232,91 Q230,43 229,25 Q228,-24 181,-23 Q159,-24 133,-24 Q132,-9 127,0 Q148,0 173,0 Q205,-2 205,31 Q207,52 209,116 Q209,123 209,127 L127,127 Q120,26 28,-30 M167,40 Q149,62 129,81 L146,95 Q161,83 186,57 M66,156 Q51,175 32,193 L49,207 Q55,202 67,190 Q79,179 85,173"/> 
            <glyph glyph-name="乐" unicode="&#x4E50;" horiz-adv-x="249" d=" M24,81 L37,191 Q119,191 220,200 L227,178 Q126,170 59,169 L50,102 L119,102 L119,153 L144,153 L144,102 L236,102 L236,81 L144,81 L144,9 Q146,-25 111,-25 Q101,-26 77,-26 Q74,-11 72,-1 Q85,-2 103,-2 Q120,-3 119,14 L119,81 M26,-16 Q22,-12 9,-2 Q8,-1 7,0 Q33,24 64,67 L84,55 Q54,13 26,-16 M228,-15 Q195,25 170,54 L189,67 Q196,59 209,43 Q237,12 249,-1"/> 
            <glyph glyph-name="也" unicode="&#x4E5F;" horiz-adv-x="250" d=" M116,24 L116,122 L62,109 L62,25 Q61,-1 88,0 L193,0 Q219,0 221,18 Q224,34 226,52 Q232,50 243,47 Q248,46 250,45 Q247,24 243,6 Q239,-21 198,-20 L80,-20 Q38,-21 39,18 L39,103 L9,96 L6,118 L39,126 L39,182 L62,182 L62,131 L116,144 L116,210 L140,210 L140,150 L226,170 Q225,150 223,113 Q222,95 222,87 Q221,47 186,48 Q177,47 158,47 Q157,54 154,66 Q153,69 153,70 Q163,70 179,70 Q200,68 199,90 Q200,99 201,121 Q202,136 202,143 L140,128 L140,24"/> 
            <glyph glyph-name="于" unicode="&#x4E8E;" horiz-adv-x="247" d=" M28,171 L28,194 L228,194 L228,171 L144,171 L144,110 L247,110 L247,86 L144,86 L144,12 Q146,-25 108,-25 Q88,-25 66,-25 Q65,-21 64,-13 Q62,-4 61,0 Q71,-1 98,-1 Q120,-2 118,18 L118,86 L8,86 L8,110 L118,110 L118,171"/> 
            <glyph glyph-name="交" unicode="&#x4EA4;" horiz-adv-x="246" d=" M233,-28 Q162,-10 128,14 Q93,-10 20,-29 L9,-5 Q79,9 109,30 Q87,50 67,88 L88,99 Q108,63 128,46 Q149,67 165,100 L188,90 Q169,53 147,30 Q183,6 246,-3 Q244,-7 240,-14 Q236,-23 233,-28 M11,154 L11,176 L120,176 Q119,179 117,183 Q113,193 106,205 L133,210 Q141,196 147,179 L139,176 L245,176 L245,154 M26,73 Q24,75 21,80 Q14,90 11,94 Q53,117 87,147 L104,129 Q68,100 26,73 M228,77 Q196,101 152,129 L167,147 Q174,143 187,134 Q223,111 244,99"/> 
            <glyph glyph-name="亮" unicode="&#x4EAE;" horiz-adv-x="249" d=" M47,102 L47,153 L208,153 L208,102 M20,-30 Q19,-28 17,-25 Q12,-15 8,-10 Q77,-2 70,35 L70,50 L177,50 L177,8 Q176,-4 190,-3 L209,-3 Q223,-4 225,7 Q227,20 227,31 Q239,27 249,25 Q248,9 245,0 Q241,-23 212,-22 L182,-22 Q153,-23 154,3 L154,32 L92,32 L92,27 Q95,-18 20,-30 M14,46 L14,86 L241,86 L241,46 L219,46 L219,67 L37,67 L37,46 M10,170 L10,189 L117,189 L111,208 L136,211 L143,189 L245,189 L245,170 M70,137 L70,119 L185,119 L185,137"/> 
            <glyph glyph-name="人" unicode="&#x4EBA;" horiz-adv-x="248" d=" M230,-24 Q142,22 128,113 Q114,24 24,-27 Q22,-24 17,-18 Q10,-9 8,-5 Q104,46 112,147 Q114,170 114,207 L140,207 L139,172 Q149,40 248,-1 Q247,-2 246,-3 Q234,-18 230,-24"/> 
            <glyph glyph-name="今" unicode="&#x4ECA;" horiz-adv-x="250" d=" M237,96 Q167,132 129,182 Q92,136 16,93 Q14,98 7,110 Q5,113 4,115 Q84,156 120,212 L148,209 L142,200 Q183,149 250,119 M144,-30 Q133,-23 123,-17 L183,54 L34,54 L34,76 L214,76 L214,54 M131,86 Q123,99 104,123 Q102,126 101,127 L120,140 Q135,121 152,100"/> 
            <glyph glyph-name="以" unicode="&#x4EE5;" horiz-adv-x="250" d=" M230,-23 Q216,-4 190,27 Q186,30 185,32 Q166,1 106,-30 Q103,-27 97,-18 Q93,-11 90,-8 Q191,32 188,136 Q190,174 190,204 L214,204 Q214,161 212,136 Q209,84 197,55 Q208,43 229,18 Q244,2 250,-4 M31,-14 L14,5 Q25,15 24,31 L24,200 L49,200 L49,29 Q80,49 112,73 Q112,71 113,67 Q116,51 118,45 Q86,24 48,0 Q44,-3 36,-9 Q33,-12 31,-14 M120,135 Q103,168 85,198 L105,209 Q126,178 143,147"/> 
            <glyph glyph-name="伞" unicode="&#x4F1E;" horiz-adv-x="249" d=" M13,23 L13,46 L115,46 L115,145 L140,145 L140,46 L243,46 L243,23 L140,23 L140,-29 L115,-29 L115,23 M235,107 Q164,139 130,185 Q90,139 20,104 L6,125 Q86,160 121,212 L149,209 Q146,206 143,201 Q181,154 249,129 Q241,119 235,107 M175,61 L158,78 Q168,86 196,114 L215,99 Q190,74 175,61 M76,61 Q69,71 46,96 Q43,99 42,100 L59,114 Q77,96 95,77"/> 
            <glyph glyph-name="伦" unicode="&#x4F26;" horiz-adv-x="250" d=" M142,-21 Q104,-22 105,14 L105,114 L128,114 L128,68 Q173,87 206,111 L220,93 Q178,64 128,45 L128,19 Q126,-1 150,0 L188,0 Q208,0 210,17 Q211,23 213,40 Q214,48 215,52 Q227,48 237,45 Q236,33 233,15 Q232,8 231,5 Q225,-21 191,-21 M38,-28 L38,106 Q26,86 13,68 Q10,84 6,99 Q41,148 59,210 L83,204 Q73,176 61,149 L61,-28 M238,107 Q191,136 164,177 Q136,136 87,105 Q81,116 74,125 Q129,159 156,210 L182,207 Q181,205 179,202 Q177,198 176,196 Q203,156 250,129"/> 
            <glyph glyph-name="作" unicode="&#x4F5C;" horiz-adv-x="249" d=" M91,94 Q88,98 80,105 Q76,109 74,111 Q106,152 124,211 L148,206 Q142,188 135,172 L249,172 L249,151 L164,151 L164,110 L235,110 L235,89 L164,89 L164,48 L242,48 L242,26 L164,26 L164,-28 L141,-28 L141,151 L125,151 Q111,122 91,94 M14,66 Q12,74 8,89 Q7,91 6,93 Q41,147 59,211 L83,205 Q74,177 62,151 L62,-28 L39,-28 L39,106 Q27,85 14,66"/> 
            <glyph glyph-name="你" unicode="&#x4F60;" horiz-adv-x="249" d=" M13,65 Q11,72 9,82 Q7,90 6,94 Q40,143 61,210 L85,204 Q74,173 62,147 L62,-29 L39,-29 L39,103 Q27,83 13,65 M229,110 Q218,113 206,115 L221,152 L124,152 Q112,129 97,105 Q87,114 78,120 Q106,159 123,209 L147,204 Q141,189 135,174 L245,174 L245,153 M115,-26 Q113,-13 110,-2 Q119,-3 136,-3 Q154,-4 153,11 L153,133 L177,133 L177,7 Q178,-24 145,-25 Q136,-26 115,-26 M227,9 Q215,42 193,93 L214,100 Q226,73 247,24 Q246,26 249,18 M100,8 Q89,14 78,18 Q100,60 113,101 L135,93 Q116,44 100,8"/> 
            <glyph glyph-name="公" unicode="&#x516C;" horiz-adv-x="250" d=" M214,-29 L198,-7 Q121,-10 65,-14 Q58,-14 46,-16 Q40,-17 37,-17 L26,4 Q38,10 47,21 Q81,60 113,116 L137,104 Q105,56 66,7 Q94,8 151,10 Q171,11 182,12 Q173,22 156,44 Q149,53 145,58 L163,71 Q181,50 218,4 Q230,-8 235,-15 M234,85 Q172,127 146,197 L168,205 Q193,141 250,108 Q246,102 237,90 Q235,87 234,85 M22,80 L6,101 Q59,140 87,201 L110,192 Q77,126 22,80"/> 
            <glyph glyph-name="具" unicode="&#x5177;" horiz-adv-x="249" d=" M7,22 L7,41 L39,41 L39,199 L217,199 L217,41 L249,41 L249,22 M61,142 L61,119 L195,119 L195,142 M61,64 L61,41 L195,41 L195,64 M61,103 L61,80 L195,80 L195,103 M61,180 L61,158 L195,158 L195,180 M22,-30 Q20,-27 17,-20 Q13,-13 11,-10 Q57,1 97,17 L108,0 Q54,-21 22,-30 M235,-28 Q203,-17 147,0 L157,15 Q171,11 199,4 Q231,-4 244,-8"/> 
            <glyph glyph-name="再" unicode="&#x518D;" horiz-adv-x="248" d=" M15,177 L15,198 L241,198 L241,177 L139,177 L139,151 L220,151 L220,53 L248,53 L248,33 L220,33 L220,5 Q222,-24 187,-25 Q168,-25 151,-25 Q150,-15 147,-3 Q151,-3 160,-3 Q173,-4 180,-4 Q198,-5 197,9 L197,33 L58,33 L58,-28 L35,-28 L35,33 L7,33 L7,53 L35,53 L35,151 L116,151 L116,177 M139,84 L139,53 L197,53 L197,84 M58,84 L58,53 L116,53 L116,84 M197,132 L139,132 L139,102 L197,102 M58,132 L58,102 L116,102 L116,132"/> 
            <glyph glyph-name="几" unicode="&#x51E0;" horiz-adv-x="250" d=" M26,-26 Q24,-24 20,-20 Q17,-17 7,-7 Q38,17 47,42 Q57,65 57,116 L57,198 L184,198 L184,21 Q183,2 199,3 L207,3 Q222,2 224,18 Q226,32 227,58 Q239,53 250,50 Q249,39 247,20 Q246,12 246,8 Q241,-20 209,-19 L192,-19 Q158,-20 159,16 L159,175 L82,175 L82,110 Q86,18 26,-26"/> 
            <glyph glyph-name="划" unicode="&#x5212;" horiz-adv-x="238" d=" M12,114 L9,135 L45,140 Q44,151 44,175 Q43,198 43,210 L66,210 Q66,175 68,143 L144,154 L146,134 L69,122 Q69,117 70,108 Q73,76 76,61 Q97,79 120,113 L139,101 Q109,60 83,38 Q89,21 99,6 Q107,-2 115,-2 Q122,-2 126,7 Q130,23 133,41 Q138,38 154,32 Q148,8 144,-4 Q135,-26 116,-27 Q94,-28 81,-5 Q71,6 65,23 Q45,8 18,-4 Q17,-3 15,0 Q12,4 5,15 Q33,28 57,46 Q50,79 47,119 M169,-26 Q167,-14 164,-2 Q181,-2 194,-2 Q214,-4 213,14 L213,209 L236,209 L236,7 Q238,-25 204,-25 Q187,-26 169,-26 M161,36 L161,183 L182,183 L182,36 M114,160 Q108,166 90,180 Q83,185 80,188 L94,202 Q118,184 129,176"/> 
            <glyph glyph-name="到" unicode="&#x5230;" horiz-adv-x="238" d=" M10,176 L10,197 L146,197 L146,176 L80,176 Q61,148 44,124 L109,127 Q106,132 101,140 Q95,149 92,153 L109,163 Q133,128 147,105 L129,93 L120,109 Q102,108 71,107 Q52,105 43,105 Q42,105 39,104 Q26,103 20,101 L12,122 Q19,127 23,131 Q41,152 54,176 M13,49 L13,70 L66,70 L66,97 L89,97 L89,70 L141,70 L141,49 L89,49 L89,8 L147,15 Q146,8 146,-5 Q85,-11 11,-20 L7,1 Q23,2 59,5 Q34,3 66,6 L66,49 M170,-25 Q169,-12 166,-1 Q175,-2 199,-2 Q214,-3 214,13 L214,209 L237,209 L237,7 Q238,-24 207,-24 Q197,-25 170,-25 M161,31 L161,183 L183,183 L183,31"/> 
            <glyph glyph-name="制" unicode="&#x5236;" horiz-adv-x="238" d=" M7,103 L7,123 L74,123 L74,154 L39,154 Q34,142 28,130 L9,138 Q25,168 32,200 L52,197 Q51,191 48,181 Q47,176 46,173 L74,173 L74,209 L95,209 L95,173 L146,173 L146,154 L95,154 L95,123 L156,123 L156,103 L95,103 L95,75 L148,75 L148,15 Q149,-8 127,-9 Q118,-10 107,-10 Q106,-5 103,3 Q102,6 102,8 Q104,8 108,8 Q115,7 118,7 Q128,7 128,18 L128,56 L95,56 L95,-29 L74,-29 L74,56 L43,56 L43,-12 L22,-12 L22,75 L74,75 L74,103 M175,-25 Q174,-21 172,-13 Q171,-6 170,-2 Q181,-3 200,-3 Q217,-4 216,12 L216,209 L237,209 L237,8 Q238,-25 208,-25 Q192,-25 175,-25 M169,34 L169,184 L189,184 L189,34"/> 
            <glyph glyph-name="前" unicode="&#x524D;" horiz-adv-x="248" d=" M23,-29 L23,134 L130,134 L130,2 Q132,-24 103,-24 Q95,-25 73,-25 Q72,-21 71,-12 Q69,-7 69,-4 Q83,-4 95,-4 Q110,-5 109,6 L109,27 L45,27 L45,-29 M8,157 L8,177 L78,177 Q69,187 56,204 L79,211 Q94,194 105,179 L99,177 L150,177 Q159,187 176,208 Q177,209 177,210 L201,204 Q198,200 191,192 Q183,182 179,177 L248,177 L248,157 M167,-25 L163,-2 Q172,-3 191,-3 Q211,-4 210,13 L210,140 L232,140 L232,8 Q234,-24 201,-24 Q184,-25 167,-25 M158,19 L158,129 L179,129 L179,19 M45,71 L45,45 L109,45 L109,71 M45,114 L45,89 L109,89 L109,114"/> 
            <glyph glyph-name="去" unicode="&#x53BB;" horiz-adv-x="248" d=" M217,-28 Q214,-25 209,-19 Q204,-13 201,-10 Q155,-11 69,-15 Q51,-16 38,-19 L26,3 Q39,10 51,22 Q75,46 97,75 L8,75 L8,97 L115,97 L115,146 L26,146 L26,168 L115,168 L115,210 L140,210 L140,168 L230,168 L230,146 L140,146 L140,97 L248,97 L248,75 L130,75 Q107,47 67,5 L183,9 Q168,27 151,45 L169,57 Q182,44 206,19 Q227,-2 238,-13"/> 
            <glyph glyph-name="发" unicode="&#x53D1;" horiz-adv-x="247" d=" M17,136 L17,159 Q29,185 34,202 L57,198 Q47,170 41,158 L89,158 Q97,184 101,211 L125,208 Q122,194 116,166 Q115,161 114,158 L247,158 L247,136 L108,136 Q104,121 98,107 L221,107 L221,87 Q201,45 170,20 Q197,4 247,-3 Q243,-9 236,-23 Q235,-26 234,-27 Q185,-13 149,6 Q112,-12 59,-30 Q53,-16 47,-7 Q101,5 129,21 Q102,43 87,79 Q61,25 16,-16 Q10,-1 5,6 Q64,63 83,136 M194,87 L106,87 Q123,53 149,34 Q179,55 194,87 M202,161 Q181,179 163,194 L177,208 Q181,205 189,199 Q208,184 217,177"/> 
            <glyph glyph-name="只" unicode="&#x53EA;" horiz-adv-x="247" d=" M36,67 L36,195 L221,195 L221,67 M60,173 L60,90 L196,90 L196,173 M25,-29 Q23,-27 16,-20 Q10,-13 7,-10 Q49,18 86,56 L105,40 Q68,3 25,-29 M227,-28 Q192,4 148,40 L166,56 Q173,50 186,39 Q227,5 247,-10"/> 
            <glyph glyph-name="叫" unicode="&#x53EB;" horiz-adv-x="232" d=" M21,-3 L21,189 L104,189 L104,0 L82,0 L82,23 L43,23 L43,-3 M143,23 L129,42 Q136,52 136,66 L136,188 L159,188 L159,58 L208,72 L208,208 L232,208 L232,-29 L208,-29 L208,47 Q199,44 180,38 Q170,35 165,34 Q153,29 143,23 M43,167 L43,44 L82,44 L82,167"/> 
            <glyph glyph-name="可" unicode="&#x53EF;" horiz-adv-x="249" d=" M34,16 L34,136 L144,136 L144,34 L57,34 L57,16 M7,171 L7,193 L249,193 L249,171 L213,171 L213,11 Q214,-24 177,-24 Q156,-25 134,-25 Q133,-16 129,-1 Q150,-2 167,-2 Q191,-4 189,18 L189,171 M57,115 L57,54 L121,54 L121,115"/> 
            <glyph glyph-name="台" unicode="&#x53F0;" horiz-adv-x="249" d=" M37,-29 L37,81 L218,81 L218,-29 L194,-29 L194,-13 L60,-13 L60,-29 M229,94 L211,113 Q143,112 55,108 Q35,107 24,104 L12,127 Q28,134 37,143 Q81,179 107,212 L133,200 Q91,160 56,130 Q65,130 84,131 Q153,132 191,134 L159,167 L177,179 Q228,130 249,108 M60,60 L60,6 L194,6 L194,60"/> 
            <glyph glyph-name="司" unicode="&#x53F8;" horiz-adv-x="236" d=" M32,0 L32,101 L165,101 L165,16 L55,16 L55,0 M55,36 L142,36 L142,80 L55,80 M10,128 L10,148 L191,148 L191,128 M155,-26 Q153,-14 150,-2 Q166,-3 190,-3 Q212,-4 211,15 L211,177 L22,177 L22,198 L235,198 L235,9 Q236,-25 201,-26 Q180,-26 155,-26"/> 
            <glyph glyph-name="同" unicode="&#x540C;" horiz-adv-x="236" d=" M21,-26 L21,198 L234,198 L234,10 Q236,-24 200,-24 Q184,-25 162,-25 Q162,-15 157,-2 Q175,-2 191,-2 Q213,-4 211,14 L211,176 L45,176 L45,-26 M75,22 L75,103 L180,103 L180,22 M60,129 L60,150 L196,150 L196,129 M97,83 L97,42 L158,42 L158,83"/> 
            <glyph glyph-name="吗" unicode="&#x5417;" horiz-adv-x="241" d=" M17,0 L17,190 L87,190 L87,2 L67,2 L67,22 L38,22 L38,0 M157,-25 Q155,-12 152,-2 Q166,-3 191,-3 Q213,-4 215,15 Q216,28 217,66 Q218,75 218,79 L110,79 L118,163 L141,163 L134,100 L191,100 L199,176 L103,176 L103,197 L223,197 L214,100 L241,100 Q240,80 238,43 Q237,22 237,13 Q236,-25 194,-25 Q176,-25 157,-25 M38,169 L38,42 L67,42 L67,169 M98,29 L98,50 L202,50 L202,29"/> 
            <glyph glyph-name="听" unicode="&#x542C;" horiz-adv-x="248" d=" M19,0 L19,189 L94,189 L94,22 L40,22 L40,0 M189,-27 L189,98 L144,98 Q145,19 107,-29 Q103,-26 95,-19 Q90,-15 88,-14 Q123,28 121,107 L121,192 Q170,194 232,203 L239,181 Q215,178 165,173 Q151,172 144,171 L144,120 L248,120 L248,98 L212,98 L212,-27 M40,168 L40,43 L73,43 L73,168"/> 
            <glyph glyph-name="周" unicode="&#x5468;" horiz-adv-x="239" d=" M24,-30 Q20,-26 7,-16 Q6,-15 5,-14 Q19,7 23,31 Q28,55 28,105 L28,200 L237,200 L237,10 Q239,-26 203,-25 Q198,-25 186,-25 Q173,-26 167,-26 Q166,-23 164,-14 Q162,-6 161,-2 Q172,-3 195,-3 Q215,-4 214,13 L214,180 L51,180 L51,103 Q51,51 45,24 Q40,-3 24,-30 M79,5 L79,73 L185,73 L185,5 M73,135 L73,154 L121,154 L121,177 L143,177 L143,154 L192,154 L192,135 L143,135 L143,112 L201,112 L201,93 L64,93 L64,112 L121,112 L121,135 M100,24 L163,24 L163,55 L100,55"/> 
            <glyph glyph-name="哪" unicode="&#x54EA;" horiz-adv-x="247" d=" M80,117 L80,136 L98,136 L98,178 L80,178 L80,198 L159,198 Q157,62 157,11 Q156,-20 129,-21 Q124,-21 117,-22 Q110,-22 106,-22 Q105,-12 102,-1 Q103,-1 108,-1 Q117,-2 121,-2 Q138,-3 138,15 L139,55 L111,55 Q108,9 76,-29 Q71,-21 62,-12 Q89,16 93,55 L80,55 L80,74 L95,74 L95,88 Q97,100 97,117 M16,2 L16,189 L71,189 L71,11 L53,11 L53,24 L34,24 L34,2 M176,-29 L176,196 L243,196 L243,176 L226,106 Q247,80 246,42 Q247,13 223,8 Q215,6 204,6 Q203,10 200,20 Q199,26 198,29 Q205,29 214,29 Q229,29 228,49 Q229,75 207,103 L225,176 L195,176 L195,-29 M34,168 L34,44 L53,44 L53,168 M139,74 L140,117 L115,117 Q115,111 114,101 Q114,92 114,88 L113,74 M140,178 L116,178 L116,136 L140,136 Q140,159 140,178"/> 
            <glyph glyph-name="在" unicode="&#x5728;" horiz-adv-x="248" d=" M17,157 L17,178 L85,178 Q93,194 98,211 L123,208 Q120,201 115,188 Q112,181 111,178 L248,178 L248,157 L101,157 Q90,133 69,103 L69,-28 L46,-28 L46,76 Q33,63 17,48 Q12,59 6,71 Q51,111 75,157 M90,73 L90,94 L151,94 L151,141 L174,141 L174,94 L235,94 L235,73 L174,73 L174,7 L248,7 L248,-13 L78,-13 L78,7 L151,7 L151,73"/> 
            <glyph glyph-name="场" unicode="&#x573A;" horiz-adv-x="240" d=" M10,124 L10,147 L38,147 L38,209 L60,209 L60,147 L86,147 L86,124 L60,124 L60,45 Q72,50 84,54 Q84,43 86,34 Q112,58 122,97 L92,97 L92,119 L189,176 L99,176 L99,196 L226,196 L226,173 L130,117 L240,117 L236,19 Q236,-24 199,-23 L169,-24 Q168,-20 166,-9 Q165,-3 165,-1 Q174,-2 192,-2 Q214,-4 215,21 Q216,33 217,69 Q218,88 218,97 L192,97 Q180,11 124,-30 Q117,-22 107,-13 Q159,23 171,97 L143,97 Q131,36 81,0 Q79,1 74,7 Q68,13 65,16 Q74,22 82,30 Q65,24 31,11 Q18,5 12,3 L6,26 L38,37 L38,124"/> 
            <glyph glyph-name="声" unicode="&#x58F0;" horiz-adv-x="248" d=" M25,-30 Q22,-28 16,-22 Q10,-17 7,-14 Q39,11 36,69 L36,104 L224,104 L224,24 L201,24 L201,35 L57,35 Q55,0 25,-30 M11,167 L11,187 L118,187 L118,210 L141,210 L141,187 L248,187 L248,167 L141,167 L141,144 L229,144 L229,124 L30,124 L30,144 L118,144 L118,167 M58,69 Q58,60 58,54 L119,54 L119,86 L58,86 M201,86 L141,86 L141,54 L201,54"/> 
            <glyph glyph-name="备" unicode="&#x5907;" horiz-adv-x="249" d=" M37,-29 L37,85 L218,85 L218,-29 L196,-29 L196,-18 L59,-18 L59,-29 M13,83 Q10,95 5,104 Q74,114 105,126 Q84,137 63,159 Q47,143 26,128 Q24,130 19,135 Q14,141 11,144 Q56,174 80,212 L104,206 Q98,198 91,189 L218,189 L218,170 Q190,143 156,125 Q196,114 249,110 Q245,102 241,88 Q171,97 130,113 Q90,97 13,83 M187,171 L79,171 Q100,149 130,135 Q164,150 187,171 M138,24 L138,-1 L196,-1 L196,24 M196,67 L138,67 L138,40 L196,40 M59,24 L59,-1 L117,-1 L117,24 M59,67 L59,40 L117,40 L117,67"/> 
            <glyph glyph-name="多" unicode="&#x591A;" horiz-adv-x="238" d=" M36,27 Q33,32 28,40 Q25,45 24,47 Q99,72 147,114 L172,108 Q170,106 165,102 Q155,94 151,90 L238,90 L238,70 Q167,-7 21,-30 Q18,-20 12,-8 Q80,0 122,18 Q112,28 91,44 Q94,42 87,48 L102,57 Q67,38 36,27 M32,134 Q27,144 19,153 Q80,177 118,213 L144,209 Q132,197 120,188 L227,188 L227,167 Q155,106 18,73 Q15,84 9,94 Q66,106 106,122 Q102,125 95,132 Q79,146 69,153 Q51,144 32,134 M207,71 L124,71 Q115,65 105,59 Q113,53 127,41 Q137,33 143,29 L132,22 Q172,40 207,71 M194,169 L94,169 L86,164 Q106,150 126,134 L111,124 Q157,142 194,169"/> 
            <glyph glyph-name="大" unicode="&#x5927;" horiz-adv-x="248" d=" M12,121 L12,144 L114,144 Q116,167 116,209 L142,209 L140,144 L244,144 L244,121 L141,121 Q154,32 248,-1 Q241,-10 231,-25 Q148,11 128,86 Q114,15 25,-28 Q23,-25 17,-17 Q11,-10 8,-6 Q106,37 112,121"/> 
            <glyph glyph-name="天" unicode="&#x5929;" horiz-adv-x="248" d=" M23,173 L23,195 L232,195 L232,173 L140,173 Q140,152 138,116 L246,116 L246,93 L143,93 Q160,21 248,-1 Q247,-3 244,-7 Q239,-16 234,-25 Q145,4 127,71 Q112,9 24,-28 Q22,-25 16,-17 Q11,-10 8,-6 Q101,28 110,93 L9,93 L9,116 L113,116 Q114,125 114,145 Q115,163 115,173"/> 
            <glyph glyph-name="好" unicode="&#x597D;" horiz-adv-x="249" d=" M99,-6 Q85,4 68,21 Q55,1 21,-26 Q12,-17 6,-8 Q35,11 51,36 Q38,48 15,67 Q24,101 31,140 L9,140 L9,161 L34,161 Q37,175 40,205 Q41,208 41,210 L65,208 Q64,201 61,186 Q59,169 57,161 L101,161 L101,139 Q95,73 79,41 Q98,25 116,10 M109,79 L109,101 L170,101 L170,134 L212,174 L118,174 L118,196 L241,196 L241,172 L194,126 L194,101 L249,101 L249,79 L194,79 L194,7 Q195,-25 161,-25 Q142,-25 129,-25 Q129,-24 128,-21 Q126,-8 124,-1 Q139,-2 153,-2 Q171,-3 170,13 L170,79 M80,140 L54,140 Q47,102 39,73 L62,55 Q76,88 80,140"/> 
            <glyph glyph-name="学" unicode="&#x5B66;" horiz-adv-x="247" d=" M9,35 L9,57 L122,57 L122,66 L166,93 L53,93 L53,114 L201,114 L201,92 L146,59 L146,57 L247,57 L247,35 L146,35 L146,4 Q147,-28 114,-27 Q99,-28 76,-28 Q74,-16 71,-4 Q76,-4 87,-4 Q98,-5 104,-5 Q123,-6 122,11 L122,35 M16,107 L16,159 L175,159 L164,164 Q188,194 197,208 L221,199 Q206,180 190,159 L240,159 L240,107 L217,107 L217,138 L39,138 L39,107 M124,167 Q112,187 100,205 L123,211 Q136,193 148,173 M58,163 Q45,182 33,199 L56,207 Q70,189 82,172"/> 
            <glyph glyph-name="它" unicode="&#x5B83;" horiz-adv-x="240" d=" M89,-21 Q48,-22 49,17 L49,127 L74,127 L74,71 Q142,91 207,122 L219,100 Q144,67 74,48 L74,20 Q72,-1 96,0 L184,0 Q206,0 208,19 Q210,27 212,52 Q217,51 227,48 Q234,46 237,45 Q234,21 230,5 Q224,-21 187,-21 M216,130 L216,157 L40,157 L40,130 L16,130 L16,179 L122,179 Q116,194 110,207 L136,211 Q137,208 141,201 Q147,188 150,180 L145,179 L240,179 L240,130"/> 
            <glyph glyph-name="定" unicode="&#x5B9A;" horiz-adv-x="248" d=" M15,104 L15,125 L240,125 L240,104 L144,104 L144,66 L228,66 L228,45 L144,45 L144,0 Q163,0 211,0 Q236,0 248,0 Q246,-7 241,-22 Q160,-22 133,-21 Q82,-19 57,19 Q45,-7 22,-29 Q15,-20 6,-11 Q45,22 51,86 L74,83 Q71,62 66,45 Q88,5 121,0 L121,104 M215,137 L215,162 L41,162 L41,138 L18,138 L18,183 L118,183 Q117,187 115,196 Q112,205 111,209 L138,212 Q142,198 145,183 L238,183 L238,137"/> 
            <glyph glyph-name="小" unicode="&#x5C0F;" horiz-adv-x="249" d=" M31,24 Q19,31 7,35 Q34,89 55,155 L80,148 Q59,85 31,24 M224,27 Q198,93 173,147 L196,154 Q228,86 249,37 M71,-25 Q70,-21 69,-12 Q67,-4 66,0 Q77,0 97,0 Q120,-2 118,18 L118,207 L143,207 L143,11 Q145,-24 108,-24 Q96,-25 71,-25"/> 
            <glyph glyph-name="就" unicode="&#x5C31;" horiz-adv-x="250" d=" M22,69 L22,140 L121,140 L121,69 L83,69 L83,3 Q84,-25 56,-25 Q46,-25 35,-25 Q33,-17 30,-5 Q34,-5 42,-6 Q47,-6 49,-6 Q63,-7 62,6 L62,69 M131,124 L131,144 L156,144 Q157,164 157,210 L179,210 Q179,188 177,144 L243,144 L243,124 L176,124 Q174,29 124,-29 Q116,-24 105,-16 Q153,35 155,124 M207,-23 Q182,-23 182,2 L182,120 L202,120 L202,9 Q202,-3 212,-2 L217,-2 Q228,-3 229,10 Q231,27 232,48 Q244,43 250,42 Q249,18 246,2 Q242,-24 217,-23 M9,162 L9,180 L64,180 Q61,195 56,209 L80,212 Q81,208 83,200 Q84,195 88,180 L132,180 L132,162 M42,121 L42,88 L100,88 L100,121 M25,-1 Q22,0 16,2 Q9,4 6,5 Q15,20 28,56 L48,50 Q47,47 44,40 Q31,9 25,-1 M220,156 Q210,168 189,185 L205,197 Q222,183 236,169 M110,17 Q107,22 101,34 Q95,46 92,51 L109,58 Q120,40 127,25"/> 
            <glyph glyph-name="工" unicode="&#x5DE5;" horiz-adv-x="246" d=" M23,166 L23,189 L232,189 L232,166 L141,166 L141,10 L246,10 L246,-12 L10,-12 L10,10 L114,10 L114,166"/> 
            <glyph glyph-name="已" unicode="&#x5DF2;" horiz-adv-x="247" d=" M73,-17 Q29,-18 30,22 L30,142 L55,142 L55,110 L195,110 L195,174 L24,174 L24,196 L220,196 L220,88 L55,88 L55,27 Q53,1 80,3 L187,3 Q216,1 219,26 Q220,31 222,42 Q223,52 224,57 Q229,55 238,52 Q244,50 247,49 Q245,31 242,15 Q236,-19 195,-17"/> 
            <glyph glyph-name="带" unicode="&#x5E26;" horiz-adv-x="248" d=" M39,-10 L39,74 L116,74 L116,96 L140,96 L140,74 L218,74 L218,19 Q219,-8 190,-8 Q182,-9 161,-9 Q160,-4 158,2 Q157,7 156,10 Q165,9 181,9 Q196,8 195,22 L195,55 L140,55 L140,-29 L116,-29 L116,55 L62,55 L62,-10 M7,162 L7,181 L54,181 L54,209 L76,209 L76,181 L117,181 L117,210 L138,210 L138,181 L180,181 L180,209 L202,209 L202,181 L248,181 L248,162 L202,162 L202,136 L180,136 L180,162 L138,162 L138,136 L117,136 L117,162 L76,162 L76,136 L54,136 L54,162 M15,80 L15,125 L241,125 L241,80 L218,80 L218,105 L38,105 L38,80"/> 
            <glyph glyph-name="帮" unicode="&#x5E2E;" horiz-adv-x="241" d=" M16,169 L16,187 L66,187 L66,210 L88,210 L88,187 L134,187 L134,169 L88,169 L88,151 L128,151 L128,135 L87,135 Q86,125 84,116 L136,116 L136,99 L78,99 Q70,78 48,62 L117,62 L117,81 L141,81 L141,62 L220,62 L220,14 Q220,-13 192,-14 Q187,-14 177,-15 Q167,-15 162,-15 Q160,-6 157,3 Q171,3 182,3 Q197,3 197,15 L197,42 L141,42 L141,-29 L117,-29 L117,42 L64,42 L64,-14 L41,-14 L41,56 Q35,52 27,47 Q20,55 11,62 Q42,79 54,99 L12,99 L12,116 L61,116 Q64,125 65,135 L22,135 L22,151 L66,151 L66,169 M150,75 L150,197 L235,197 L235,179 L216,147 Q241,132 241,112 Q241,86 211,85 Q200,84 186,84 Q186,85 186,86 Q185,94 182,103 Q192,103 204,103 Q219,103 219,115 Q219,129 193,144 L213,179 L171,179 L171,75"/> 
            <glyph glyph-name="平" unicode="&#x5E73;" horiz-adv-x="247" d=" M20,176 L20,198 L236,198 L236,176 L140,176 L140,77 L247,77 L247,54 L140,54 L140,-29 L115,-29 L115,54 L8,54 L8,77 L115,77 L115,176 M179,90 L161,105 Q186,132 207,160 L226,146 Q203,117 179,90 M72,91 Q51,120 29,146 L47,160 Q70,133 92,106"/> 
            <glyph glyph-name="床" unicode="&#x5E8A;" horiz-adv-x="249" d=" M65,96 L65,116 L138,116 L138,150 L161,150 L161,116 L238,116 L238,96 L170,96 Q198,45 249,18 Q247,16 244,11 Q238,3 234,-2 Q182,31 161,78 L161,-28 L138,-28 L138,78 Q114,25 66,-5 Q63,-1 55,7 Q51,12 49,14 Q102,44 128,96 M25,-28 Q22,-26 15,-20 Q8,-15 5,-12 Q21,13 26,36 Q31,58 31,105 L31,180 L132,180 Q131,183 128,189 Q122,202 120,207 L145,212 Q151,200 159,180 L157,180 L245,180 L245,159 L54,159 L54,106 Q54,55 48,28 Q42,0 25,-28"/> 
            <glyph glyph-name="度" unicode="&#x5EA6;" horiz-adv-x="247" d=" M238,-27 Q182,-18 147,-2 Q116,-17 57,-30 Q52,-20 46,-9 Q99,-1 124,8 Q99,25 80,50 L64,50 L64,68 L219,68 L219,48 Q197,24 170,8 Q201,-1 247,-5 Q246,-9 243,-16 Q240,-24 238,-27 M25,-29 Q22,-27 16,-21 Q9,-16 6,-14 Q21,11 25,33 Q29,54 29,100 L29,187 L130,187 Q128,193 124,205 Q123,208 123,209 L150,212 Q153,200 156,187 L246,187 L246,167 L51,167 L51,97 Q53,12 25,-29 M56,124 L56,143 L91,143 L91,163 L113,163 L113,143 L181,143 L181,163 L202,163 L202,143 L244,143 L244,124 L202,124 L202,86 L91,86 L91,124 M191,50 L106,50 Q122,30 146,18 Q173,32 191,50 M113,124 L113,103 L181,103 L181,124"/> 
            <glyph glyph-name="开" unicode="&#x5F00;" horiz-adv-x="250" d=" M21,172 L21,194 L239,194 L239,172 L193,172 L193,103 L250,103 L250,80 L193,80 L193,-27 L169,-27 L169,80 L94,80 Q97,6 31,-30 Q28,-27 22,-20 Q16,-13 13,-10 Q72,19 70,80 L9,80 L9,103 L70,103 L70,172 M94,172 L94,103 L169,103 L169,172"/> 
            <glyph glyph-name="得" unicode="&#x5F97;" horiz-adv-x="249" d=" M99,108 L99,200 L231,200 L231,108 M88,71 L88,90 L244,90 L244,71 L216,71 L216,52 L249,52 L249,34 L216,34 L216,5 Q217,-26 185,-25 Q180,-25 169,-25 Q155,-26 149,-26 Q147,-15 144,-4 Q162,-5 176,-5 Q195,-6 193,8 L193,34 L79,34 L79,52 L193,52 L193,71 M38,-29 L38,72 Q26,58 13,46 Q12,51 9,60 Q7,66 6,69 Q39,102 65,146 L83,134 Q72,116 60,100 L60,-29 M19,127 Q15,139 9,148 Q39,174 65,211 L84,198 Q56,160 19,127 M121,146 L121,126 L209,126 L209,146 M121,182 L121,162 L209,162 L209,182 M126,-9 Q118,0 98,20 L114,33 Q118,29 125,22 Q137,11 144,3"/> 
            <glyph glyph-name="快" unicode="&#x5FEB;" horiz-adv-x="247" d=" M82,68 L82,89 L139,89 Q141,110 141,148 L98,148 L98,169 L141,169 L141,209 L165,209 Q165,182 164,169 L225,169 L225,89 L247,89 L247,68 L170,68 Q190,17 247,-4 Q243,-9 235,-20 Q232,-24 231,-26 Q172,5 154,54 Q143,8 86,-29 Q84,-26 77,-18 Q72,-12 70,-10 Q128,22 136,68 M86,118 Q75,130 63,141 L63,-28 L41,-28 L41,209 L63,209 L63,162 L67,166 Q87,148 100,135 M202,148 L164,148 Q164,113 162,89 L202,89 M22,87 Q20,88 14,89 Q8,90 5,90 Q6,94 7,102 Q12,126 15,156 L31,154 Q27,112 22,87"/> 
            <glyph glyph-name="想" unicode="&#x60F3;" horiz-adv-x="250" d=" M116,65 L116,200 L231,200 L231,65 M12,154 L12,174 L50,174 L50,210 L71,210 L71,174 L104,174 L104,154 L71,154 L71,130 L79,137 Q85,132 83,134 Q99,121 108,113 L94,98 Q83,110 71,120 L71,60 L50,60 L50,124 Q36,95 14,71 Q14,72 13,74 Q10,89 7,95 Q31,120 47,154 M103,-23 Q68,-23 68,8 L68,48 L91,48 L91,13 Q90,-3 111,-2 L150,-2 Q169,-3 172,12 Q174,21 175,33 Q181,30 192,26 Q196,25 197,25 Q194,9 191,0 Q184,-23 155,-23 M137,105 L137,82 L209,82 L209,105 M137,182 L137,159 L209,159 L209,182 M137,144 L137,121 L209,121 L209,144 M28,-13 Q19,-8 8,-5 Q19,14 30,48 L51,41 Q42,12 28,-13 M230,-7 Q229,-6 227,-3 Q210,24 199,39 L218,49 Q233,28 250,3 M138,15 Q126,32 110,47 L125,60 Q136,50 155,29"/> 
            <glyph glyph-name="懂" unicode="&#x61C2;" horiz-adv-x="248" d=" M88,144 L86,158 Q163,158 232,161 L235,146 L170,145 L170,131 L248,131 L248,117 L170,117 L170,104 L234,104 L234,35 L170,35 L170,20 L240,20 L240,7 L170,7 L170,-5 L248,-5 L248,-21 L68,-21 L68,-5 L149,-5 L149,7 L79,7 L79,20 L149,20 L149,35 L84,35 L84,104 L149,104 L149,117 L74,117 L74,131 L149,131 L149,145 Q119,144 88,144 M36,-29 L36,210 L56,210 L56,169 Q57,169 58,168 Q73,156 81,147 L71,131 Q64,139 56,145 L56,-29 M73,178 L73,193 L118,193 L118,210 L138,210 L138,193 L180,193 L180,210 L201,210 L201,193 L248,193 L248,178 L201,178 L201,166 L180,166 L180,178 L138,178 L138,165 L118,165 L118,178 M20,90 Q13,93 5,93 Q13,133 15,157 L29,155 Q26,123 20,90 M170,63 L170,48 L214,48 L214,63 M104,90 L104,75 L149,75 L149,90 M214,90 L170,90 L170,75 L214,75 M104,63 L104,48 L149,48 L149,63"/> 
            <glyph glyph-name="我" unicode="&#x6211;" horiz-adv-x="249" d=" M17,168 Q17,172 15,179 Q14,187 13,190 Q62,193 113,201 L118,179 Q113,179 103,177 Q88,176 81,175 L81,138 L140,138 Q137,177 137,211 L161,211 Q161,188 163,138 L249,138 L249,116 L164,116 L166,101 Q169,76 172,56 Q196,78 215,105 L234,91 Q209,57 179,32 Q181,29 183,23 Q186,17 187,14 Q197,-4 210,-3 Q218,-3 222,8 Q224,18 228,42 Q242,35 249,33 Q246,9 240,-6 Q233,-27 210,-27 Q183,-28 166,3 Q165,5 163,10 Q161,14 160,16 Q136,0 106,-15 Q96,0 92,3 Q122,17 152,39 Q146,65 143,99 L141,116 L81,116 L81,77 Q90,78 108,81 Q120,83 126,84 Q126,82 126,77 Q125,68 126,62 Q120,61 108,59 Q90,56 81,55 L81,4 Q82,-23 55,-24 Q46,-25 22,-25 Q21,-21 20,-14 Q18,-6 17,-2 Q22,-3 42,-3 Q58,-4 57,10 L57,50 L10,42 L6,66 Q11,67 23,68 Q45,71 57,73 L57,116 L7,116 L7,138 L57,138 L57,172 Q45,170 25,169 Q19,168 17,168 M216,147 Q199,166 175,186 L191,200 Q205,188 233,164"/> 
            <glyph glyph-name="房" unicode="&#x623F;" horiz-adv-x="247" d=" M24,-28 L5,-15 Q20,8 25,31 Q30,54 30,99 L30,185 L123,185 Q120,197 115,208 L141,211 L151,185 L233,185 L233,122 L52,122 L52,100 Q52,49 46,24 Q41,-1 24,-28 M55,78 L55,97 L140,97 Q139,100 137,107 Q135,113 134,116 L159,119 Q160,116 162,108 Q164,101 165,97 L247,97 L247,78 L122,78 Q122,65 121,55 L223,55 Q223,44 221,20 Q220,14 220,11 Q219,-23 182,-23 Q177,-23 164,-23 Q150,-24 144,-24 Q141,-9 138,-2 Q143,-2 155,-2 Q167,-3 174,-3 Q197,-4 198,15 Q198,17 198,25 Q199,33 199,36 L118,36 Q113,0 65,-30 Q63,-28 60,-25 Q52,-16 48,-13 Q79,5 89,23 Q99,40 99,78 M52,165 L52,141 L211,141 L211,165"/> 
            <glyph glyph-name="手" unicode="&#x624B;" horiz-adv-x="249" d=" M26,170 Q25,183 22,193 Q130,194 224,200 L228,178 Q216,178 190,176 Q158,175 142,174 L142,132 L228,132 L228,111 L142,111 L142,69 L249,69 L249,47 L142,47 L142,9 Q143,-25 107,-25 Q85,-25 65,-25 Q64,-20 62,-11 Q61,-5 60,-1 Q71,-2 96,-2 Q119,-3 118,16 L118,47 L8,47 L8,69 L118,69 L118,111 L26,111 L26,132 L118,132 L118,173 Q70,172 26,170"/> 
            <glyph glyph-name="找" unicode="&#x627E;" horiz-adv-x="249" d=" M103,115 L100,136 L140,140 Q139,155 138,187 Q137,202 137,210 L161,210 Q161,174 163,143 L243,152 L244,131 L164,122 Q164,121 164,119 Q166,110 166,101 Q167,96 168,88 Q170,72 171,65 Q196,85 218,113 L236,99 Q207,64 177,40 Q181,26 188,14 Q197,-2 210,-2 Q218,-3 222,8 Q226,29 228,45 Q236,40 249,36 Q246,16 242,0 Q235,-28 211,-27 Q185,-27 168,2 Q162,13 157,26 Q133,10 100,-4 Q97,0 91,7 Q88,12 86,15 Q123,31 150,49 Q146,71 143,101 L141,119 M10,142 L10,162 L47,162 L47,209 L70,209 L70,162 L103,162 L103,142 L70,142 L70,92 Q77,93 94,96 Q102,97 106,98 Q105,93 106,83 Q106,78 106,75 L70,69 L70,2 Q71,-26 42,-26 Q28,-26 18,-26 Q18,-24 16,-18 Q15,-8 14,-4 Q21,-4 33,-4 Q48,-5 47,8 L47,64 L9,57 L6,82 Q12,83 26,85 Q40,87 47,88 L47,142 M212,157 Q203,165 181,183 Q177,185 175,187 L188,202 Q197,196 210,186 Q221,178 227,174"/> 
            <glyph glyph-name="技" unicode="&#x6280;" horiz-adv-x="249" d=" M98,152 L98,173 L157,173 L157,210 L180,210 L180,173 L245,173 L245,152 L180,152 L180,115 L233,115 L233,94 Q215,50 186,22 Q210,4 249,-5 Q247,-9 243,-17 Q238,-25 236,-28 Q191,-9 168,7 Q139,-12 91,-30 Q89,-26 83,-16 Q79,-11 78,-9 Q127,6 150,23 Q125,47 107,94 L109,95 L100,95 L100,115 L157,115 L157,152 M9,143 L9,164 L39,164 L39,209 L61,209 L61,164 L87,164 L87,143 L61,143 L61,96 Q76,99 89,103 Q89,91 89,80 Q86,79 81,78 Q77,77 61,73 L61,2 Q62,-26 36,-26 Q24,-26 14,-26 Q12,-14 9,-4 Q15,-4 27,-4 Q40,-5 39,8 L39,68 L8,59 L6,84 Q9,85 17,86 Q31,89 39,91 L39,143 M209,95 L130,95 Q146,58 168,36 Q192,57 209,95"/> 
            <glyph glyph-name="控" unicode="&#x63A7;" horiz-adv-x="248" d=" M9,143 L9,164 L38,164 L38,210 L60,210 L60,164 L84,164 L84,143 L60,143 L60,94 Q66,96 77,99 Q82,100 84,101 Q84,96 85,88 Q85,81 85,78 Q82,78 74,75 Q65,73 60,72 L60,2 Q61,-25 35,-26 Q22,-27 10,-27 Q9,-15 6,-4 Q15,-4 26,-4 Q39,-5 38,7 L38,66 Q25,62 8,57 L6,82 L38,89 L38,143 M98,55 L98,75 L236,75 L236,55 L178,55 L178,0 L248,0 L248,-19 L82,-19 L82,0 L155,0 L155,55 M93,130 L93,178 L159,178 Q151,196 146,206 L169,210 Q178,195 184,179 L179,178 L242,178 L242,131 L220,131 L220,157 L114,157 L114,130 M229,81 Q210,99 177,124 L191,138 Q213,123 245,98 M104,82 Q99,90 91,99 Q119,117 143,139 L158,123 Q137,104 104,82"/> 
            <glyph glyph-name="放" unicode="&#x653E;" horiz-adv-x="249" d=" M235,-28 Q202,-6 181,15 Q159,-8 123,-31 Q120,-25 111,-13 Q109,-10 108,-9 Q146,11 167,34 Q148,65 140,111 Q134,99 126,89 L113,108 Q113,103 112,92 Q111,35 109,12 Q109,-21 78,-21 Q65,-21 54,-21 Q52,-12 49,0 Q52,0 58,0 Q65,0 69,0 Q88,-1 88,16 Q90,66 90,88 L55,88 Q53,11 22,-29 Q20,-27 17,-24 Q8,-15 5,-12 Q33,23 34,100 Q34,108 35,124 Q35,140 35,147 L9,147 L9,168 L63,168 Q60,179 53,201 Q52,205 51,207 L75,211 Q76,207 79,199 Q86,177 88,168 L124,168 L124,147 L57,147 Q57,127 56,109 L112,109 Q143,152 157,211 L181,208 Q176,187 167,167 L248,167 L248,145 L230,145 Q223,74 196,34 Q216,10 249,-5 Q247,-9 242,-17 Q237,-25 235,-28 M182,53 Q203,87 208,145 L158,145 L156,141 Q162,86 182,53"/> 
            <glyph glyph-name="时" unicode="&#x65F6;" horiz-adv-x="249" d=" M16,-16 L16,190 L102,190 L102,-13 L80,-13 L80,5 L38,5 L38,-16 M114,137 L114,159 L196,159 L196,210 L219,210 L219,159 L249,159 L249,137 L219,137 L219,11 Q220,-24 184,-25 Q165,-25 145,-25 Q144,-22 143,-17 Q141,-7 139,-1 Q149,-2 175,-2 Q197,-3 196,17 L196,137 M38,88 L38,25 L80,25 L80,88 M38,170 L38,108 L80,108 L80,170 M150,47 Q139,71 119,103 L138,114 Q155,87 171,59"/> 
            <glyph glyph-name="是" unicode="&#x662F;" horiz-adv-x="249" d=" M41,106 L41,200 L215,200 L215,106 M10,68 L10,87 L247,87 L247,68 L143,68 L143,44 L229,44 L229,25 L143,25 L143,0 Q195,0 249,0 Q246,-11 243,-21 Q174,-21 142,-20 Q82,-20 61,14 Q51,-8 20,-31 L6,-14 Q47,11 51,60 L73,57 Q72,53 71,45 Q69,38 69,35 Q85,4 120,0 L120,68 M64,145 L64,124 L191,124 L191,145 M64,181 L64,161 L191,161 L191,181"/> 
            <glyph glyph-name="景" unicode="&#x666F;" horiz-adv-x="248" d=" M31,126 L31,200 L225,200 L225,126 L138,126 Q141,118 143,109 L248,109 L248,92 L8,92 L8,109 L118,109 Q115,117 112,126 L116,126 M88,-26 L83,-5 Q94,-6 106,-6 Q121,-6 121,5 L121,27 L38,27 L38,77 L219,77 L219,27 L144,27 L144,2 Q145,-25 115,-26 Q105,-26 88,-26 M61,62 L61,42 L196,42 L196,62 M54,157 L54,141 L202,141 L202,157 M54,185 L54,170 L202,170 L202,185 M18,-26 Q16,-22 11,-15 Q9,-10 7,-7 Q42,2 82,22 L94,6 Q58,-10 18,-26 M237,-23 Q206,-9 163,4 L174,20 Q184,17 203,10 Q232,0 248,-4"/> 
            <glyph glyph-name="智" unicode="&#x667A;" horiz-adv-x="236" d=" M41,-29 L41,81 L216,81 L216,-29 L193,-29 L193,-18 L64,-18 L64,-29 M144,99 L144,193 L236,193 L236,99 M23,152 Q21,154 16,159 Q12,164 9,166 Q31,185 40,212 L61,210 Q57,199 52,190 L126,190 L126,173 L90,173 Q90,168 89,161 Q89,152 88,148 L133,148 L133,131 L83,131 Q108,116 132,100 L119,83 Q115,86 107,92 Q87,107 76,115 Q64,94 21,73 Q15,82 8,92 Q51,107 61,131 L10,131 L10,148 L66,148 Q68,160 68,173 L42,173 Q34,163 23,152 M64,62 L64,39 L193,39 L193,62 M64,22 L64,0 L193,0 L193,22 M165,174 L165,118 L215,118 L215,174"/> 
            <glyph glyph-name="更" unicode="&#x66F4;" horiz-adv-x="248" d=" M201,40 L201,52 L135,52 Q131,27 118,12 Q156,0 248,-1 Q242,-13 238,-23 Q139,-19 100,-2 Q77,-17 22,-30 Q20,-26 15,-18 Q11,-12 9,-9 Q60,0 76,7 Q59,17 40,38 L56,50 Q75,31 96,20 Q108,32 112,52 L31,52 L31,158 L117,158 L117,180 L14,180 L14,199 L242,199 L242,180 L140,180 Q140,170 140,158 L224,158 L224,40 M139,96 Q139,92 138,83 Q138,75 137,71 L201,71 L201,96 M54,139 L54,114 L116,114 Q117,126 117,139 M115,71 Q115,74 115,81 Q116,91 116,96 L54,96 L54,71 M201,139 L140,139 Q140,127 139,114 L201,114"/> 
            <glyph glyph-name="机" unicode="&#x673A;" horiz-adv-x="249" d=" M95,-29 Q93,-27 88,-23 Q80,-15 75,-12 Q100,13 107,36 Q114,58 114,110 L114,196 L205,196 L205,10 Q204,0 213,0 L217,0 Q227,0 228,12 Q230,29 231,55 Q240,52 249,50 Q248,17 245,4 Q242,-20 219,-20 L207,-20 Q182,-20 182,6 L182,174 L136,174 L136,109 Q136,53 128,26 Q120,-1 95,-29 M11,142 L11,163 L42,163 L42,210 L64,210 L64,163 L95,163 L95,142 L64,142 L64,108 L71,115 Q76,110 88,99 Q99,88 103,84 L89,68 Q77,82 64,94 L64,-28 L42,-28 L42,95 Q31,57 12,32 Q9,47 5,61 Q28,91 42,142"/> 
            <glyph glyph-name="来" unicode="&#x6765;" horiz-adv-x="249" d=" M23,157 L23,178 L116,178 L116,210 L140,210 L140,178 L233,178 L233,157 L140,157 L140,94 L246,94 L246,73 L150,73 Q187,32 249,10 Q247,6 242,0 Q238,-7 235,-11 Q169,16 140,56 L140,-29 L116,-29 L116,57 Q82,14 19,-14 Q15,-6 5,5 Q66,31 105,73 L10,73 L10,94 L116,94 L116,157 M179,98 L163,113 Q183,131 198,151 L216,137 Q215,136 214,135 Q193,112 179,98 M72,100 Q65,109 50,126 Q43,134 40,138 L58,151 Q68,141 86,119 Q74,133 90,114"/> 
            <glyph glyph-name="杰" unicode="&#x6770;" horiz-adv-x="249" d=" M13,151 L13,172 L116,172 L116,209 L139,209 L139,172 L242,172 L242,151 L150,151 Q178,107 249,81 Q239,67 235,59 Q166,91 139,133 L139,51 L116,51 L116,133 Q87,88 21,57 Q19,59 15,66 Q9,75 6,78 Q75,106 105,151 M31,-28 Q26,-26 17,-22 Q12,-20 9,-19 Q11,-15 15,-7 Q31,22 37,38 L58,31 Q46,1 31,-28 M223,-23 Q222,-22 221,-19 Q206,13 195,34 L216,41 Q221,32 231,13 Q241,-5 246,-14 M94,-22 Q91,-8 81,27 Q89,0 80,32 L102,36 Q111,8 118,-18 M156,-19 Q149,3 137,34 L159,38 Q162,29 169,13 Q176,-4 179,-13"/> 
            <glyph glyph-name="正" unicode="&#x6B63;" horiz-adv-x="248" d=" M19,169 L19,191 L239,191 L239,169 L154,169 L154,103 L230,103 L230,81 L154,81 L154,6 L248,6 L248,-15 L8,-15 L8,6 L45,6 L45,134 L70,134 L70,6 L129,6 L129,169"/> 
            <glyph glyph-name="步" unicode="&#x6B65;" horiz-adv-x="247" d=" M9,103 L9,124 L48,124 L48,190 L71,190 L71,124 L123,124 L123,210 L147,210 L147,178 L228,178 L228,158 L147,158 L147,124 L247,124 L247,103 M17,-30 Q15,-21 9,-8 Q146,4 210,74 L229,61 Q165,-11 17,-30 M28,20 Q21,31 14,37 Q49,58 78,84 L94,68 Q67,45 28,20 M122,27 L122,94 L145,94 L145,27"/> 
            <glyph glyph-name="活" unicode="&#x6D3B;" horiz-adv-x="248" d=" M85,172 Q84,183 82,193 Q168,195 235,200 L238,179 Q205,178 172,176 L172,136 L248,136 L248,115 L172,115 L172,76 L232,76 L232,-28 L209,-28 L209,-14 L111,-14 L111,-28 L88,-28 L88,76 L148,76 L148,115 L74,115 L74,136 L148,136 L148,174 M111,56 L111,5 L209,5 L209,56 M36,-27 L12,-19 Q29,24 41,71 Q52,67 64,62 Q51,23 36,-27 M46,91 Q25,111 5,126 L21,142 Q30,135 49,120 Q58,113 63,109 M52,156 Q41,167 18,187 Q15,190 13,191 L29,207 Q36,201 50,190 Q63,179 70,173"/> 
            <glyph glyph-name="流" unicode="&#x6D41;" horiz-adv-x="250" d=" M72,161 L72,180 L147,180 Q146,183 144,188 Q139,200 135,206 L161,211 Q163,206 168,196 Q172,186 174,181 L171,180 L241,180 L241,161 L157,161 Q125,129 109,115 Q138,115 194,117 L174,140 L191,151 Q224,117 241,96 L222,83 L209,99 Q145,97 107,95 Q96,95 83,93 L73,113 Q78,115 87,121 Q90,123 91,124 Q108,138 126,161 M211,-23 Q185,-23 186,0 L186,81 L207,81 L207,4 Q207,-4 216,-3 L221,-3 Q229,-3 230,5 Q231,14 231,11 Q232,26 233,37 Q241,34 250,32 Q249,11 246,-1 Q242,-23 221,-23 M73,-30 Q65,-23 56,-15 Q88,5 89,45 Q90,60 90,81 L112,81 Q112,73 111,59 Q111,48 111,43 Q111,0 73,-30 M138,-23 L138,81 L160,81 L160,-23 M34,-26 L11,-20 Q23,16 37,69 Q40,68 46,66 Q55,63 60,62 Q43,5 34,-26 M50,157 Q31,175 12,190 L28,206 Q30,205 33,202 Q54,186 67,175 M44,92 Q40,95 32,102 Q25,109 6,124 L21,141 Q41,125 60,110"/> 
            <glyph glyph-name="灯" unicode="&#x706F;" horiz-adv-x="248" d=" M119,169 L119,192 L248,192 L248,169 L205,169 L205,10 Q206,-23 170,-24 Q155,-24 133,-24 Q130,-8 128,-1 Q133,-1 145,-2 Q156,-2 161,-2 Q182,-3 181,17 L181,169 M97,1 Q92,9 80,26 Q68,43 62,51 Q53,12 24,-26 Q21,-24 15,-17 Q9,-11 5,-8 Q47,38 47,112 Q48,124 48,146 Q48,164 48,208 L71,208 Q71,173 71,155 Q71,134 70,117 Q87,144 99,171 L116,157 Q111,148 99,129 Q88,110 82,100 L69,111 Q69,92 66,74 L68,77 Q73,71 82,59 Q103,33 115,18 M20,94 Q19,99 17,109 Q9,148 6,165 L23,168 Q27,151 36,111 Q37,103 38,99"/> 
            <glyph glyph-name="点" unicode="&#x70B9;" horiz-adv-x="247" d=" M36,47 L36,134 L111,134 L111,211 L135,211 L135,184 L244,184 L244,163 L135,163 L135,134 L222,134 L222,47 M60,113 L60,68 L198,68 L198,113 M29,-27 L7,-19 Q9,-16 12,-10 Q28,17 35,33 L57,26 Q45,0 29,-27 M224,-24 Q213,-1 198,27 L220,34 Q222,30 228,19 Q243,-7 247,-16 M91,-24 Q88,-13 81,11 Q78,21 77,26 L99,29 Q100,26 102,20 Q111,-8 114,-20 M154,-22 Q150,-6 136,27 L158,31 Q159,29 160,26 Q172,-1 177,-16"/> 
            <glyph glyph-name="爱" unicode="&#x7231;" horiz-adv-x="247" d=" M11,85 L11,103 L80,103 Q84,113 87,124 L111,121 L105,103 L247,103 L247,85 L98,85 Q95,80 91,71 Q89,67 88,65 L219,65 L219,45 Q195,22 167,7 Q192,0 247,-5 L238,-26 Q180,-19 142,-4 Q96,-21 46,-30 Q41,-21 35,-10 Q77,-4 116,6 Q93,20 72,40 Q52,10 16,-16 Q14,-10 8,0 Q6,3 5,4 Q51,35 73,85 M17,112 L17,146 L59,146 Q56,151 50,162 Q46,167 45,170 L66,175 Q75,163 83,147 L80,146 L126,146 L113,173 L135,178 Q137,175 140,168 Q146,156 150,148 L141,146 L176,146 Q187,164 196,178 L218,172 Q215,168 210,161 Q204,151 200,146 L240,146 L240,112 L217,112 L217,129 L40,129 L40,112 M24,178 Q23,188 20,198 Q122,198 233,204 L237,185 Q157,182 24,178 M190,47 L94,47 Q115,29 141,16 Q166,28 190,47"/> 
            <glyph glyph-name="牙" unicode="&#x7259;" horiz-adv-x="246" d=" M15,174 L15,197 L241,197 L241,174 L184,174 L184,114 L246,114 L246,91 L184,91 L184,12 Q185,-23 148,-24 Q128,-24 104,-24 Q102,-12 99,0 Q118,0 137,0 Q161,-2 159,20 L159,91 L154,91 Q103,21 22,-15 Q20,-13 15,-5 Q10,2 8,4 Q82,39 126,91 L29,91 L29,114 L45,161 L70,160 L56,114 L159,114 L159,174"/> 
            <glyph glyph-name="现" unicode="&#x73B0;" horiz-adv-x="249" d=" M194,-22 Q164,-22 164,7 L164,47 Q152,9 90,-29 Q88,-27 82,-21 Q76,-14 73,-11 Q121,15 136,40 Q152,63 154,113 Q155,131 155,159 L178,159 Q178,140 176,118 Q174,82 170,68 L186,68 L186,11 Q185,-3 200,-2 L208,-2 Q223,-3 225,10 Q226,16 227,31 Q227,28 228,39 Q232,39 249,32 Q249,24 246,5 Q249,19 245,2 Q241,-23 211,-22 M100,51 L100,199 L231,199 L231,53 L209,53 L209,178 L123,178 L123,51 M9,170 L9,191 L92,191 L92,170 L61,170 L61,109 L89,109 L89,88 L61,88 L61,27 Q66,28 76,29 Q89,31 94,32 Q94,15 95,10 Q65,5 9,-2 L6,19 Q12,20 28,22 Q35,23 39,24 L39,88 L12,88 L12,109 L39,109 L39,170"/> 
            <glyph glyph-name="生" unicode="&#x751F;" horiz-adv-x="249" d=" M30,93 Q27,95 19,100 Q12,105 9,107 Q41,147 57,198 L81,194 Q78,186 73,171 Q69,163 68,159 L122,159 L122,211 L146,211 L146,159 L236,159 L236,137 L146,137 L146,84 L228,84 L228,62 L146,62 L146,4 L249,4 L249,-17 L10,-17 L10,4 L122,4 L122,62 L35,62 L35,84 L122,84 L122,137 L57,137 Q45,114 30,93"/> 
            <glyph glyph-name="的" unicode="&#x7684;" horiz-adv-x="240" d=" M16,-26 L16,170 L43,170 Q44,174 46,181 Q50,192 53,210 L78,206 Q73,188 67,170 L112,170 L112,-24 L90,-24 L90,-5 L39,-5 L39,-26 M151,-24 Q150,-13 146,0 Q159,-1 185,-1 Q213,-3 213,24 Q215,46 216,118 Q217,139 217,148 L157,148 Q153,139 144,122 Q140,114 138,110 Q129,116 118,122 Q142,165 155,210 L178,205 Q176,199 172,188 Q168,176 166,170 L240,170 Q240,106 236,20 Q236,-23 193,-24 Q173,-24 151,-24 M39,71 L39,14 L90,14 L90,71 M39,148 L39,93 L90,93 L90,148 M174,45 Q169,52 159,66 Q145,87 137,98 L155,110 Q162,100 176,82 Q188,67 194,58"/> 
            <glyph glyph-name="目" unicode="&#x76EE;" horiz-adv-x="221" d=" M34,-28 L34,198 L221,198 L221,-28 L197,-28 L197,-10 L58,-10 L58,-28 M58,52 L58,9 L197,9 L197,52 M58,176 L58,134 L197,134 L197,176 M58,114 L58,73 L197,73 L197,114"/> 
            <glyph glyph-name="空" unicode="&#x7A7A;" horiz-adv-x="248" d=" M41,60 L41,82 L214,82 L214,60 L140,60 L140,3 L241,3 L241,-17 L15,-17 L15,3 L116,3 L116,60 M15,131 L15,181 L120,181 Q118,187 114,198 Q111,204 110,207 L136,211 Q138,206 142,195 Q145,186 147,182 L144,181 L240,181 L240,131 L216,131 L216,159 L39,159 L39,131 M235,74 Q210,91 160,120 Q151,125 146,128 L159,145 Q207,120 248,94 M20,74 Q18,78 14,84 Q10,91 8,94 Q54,115 95,146 L110,128 Q68,100 20,74"/> 
            <glyph glyph-name="等" unicode="&#x7B49;" horiz-adv-x="248" d=" M26,115 L26,132 L115,132 L115,147 L138,147 L138,132 L229,132 L229,115 L138,115 L138,92 L248,92 L248,73 L8,73 L8,92 L115,92 L115,115 M17,32 L17,51 L168,51 L168,70 L191,70 L191,51 L240,51 L240,32 L191,32 L191,7 Q192,-26 157,-26 Q134,-26 120,-26 Q119,-21 117,-12 Q116,-7 115,-5 Q133,-6 148,-6 Q169,-7 168,11 L168,32 L68,32 Q74,28 86,18 Q99,8 104,3 L88,-11 Q73,2 52,19 L66,32 M22,139 Q14,147 5,154 Q35,178 51,212 L74,210 Q69,199 63,190 L130,190 L130,172 L77,172 Q89,160 100,150 L84,137 Q77,146 62,161 L76,172 L51,172 Q43,159 22,139 M141,147 Q138,150 129,155 Q125,158 123,159 Q147,184 158,212 L181,210 Q178,205 174,196 Q172,192 171,190 L246,190 L246,172 L188,172 Q191,170 196,165 Q201,162 213,150 L199,137 Q186,149 174,161 L187,172 L160,172 Q153,160 141,147"/> 
            <glyph glyph-name="箱" unicode="&#x7BB1;" horiz-adv-x="246" d=" M116,-29 L116,132 L234,132 L234,-29 L212,-29 L212,-15 L137,-15 L137,-29 M12,91 L12,110 L48,110 L48,142 L70,142 L70,110 L100,110 L100,91 L70,91 L70,64 L78,72 Q84,68 93,59 Q103,51 108,46 L93,30 Q85,39 70,54 L70,-29 L48,-29 L48,59 Q36,28 14,0 Q14,1 13,3 Q9,19 6,26 Q31,53 45,91 M22,137 Q15,145 6,152 Q36,177 50,211 L73,208 Q69,198 63,189 L130,189 L130,171 L51,171 Q40,153 22,137 M140,140 Q137,142 132,147 Q126,151 123,153 Q148,180 158,211 L181,208 Q177,198 172,189 L246,189 L246,171 L162,171 Q158,164 146,149 Q142,143 140,140 M137,113 L137,87 L212,87 L212,113 M137,27 L137,2 L212,2 L212,27 M137,70 L137,45 L212,45 L212,70 M87,135 Q77,149 66,159 L80,170 Q92,161 103,148 M196,136 Q192,140 185,148 Q178,155 174,159 L188,170 Q188,170 189,169 Q203,157 211,148"/> 
            <glyph glyph-name="米" unicode="&#x7C73;" horiz-adv-x="249" d=" M10,91 L10,114 L116,114 L116,208 L140,208 L140,114 L245,114 L245,91 L154,91 Q185,40 249,13 Q247,9 243,2 Q238,-5 236,-9 Q167,25 140,78 L140,-29 L116,-29 L116,78 Q90,26 20,-14 Q14,-2 6,7 Q72,43 103,91 M72,128 Q45,160 27,180 L45,194 Q65,174 91,144 M183,128 L165,143 Q187,166 209,194 L229,180 Q226,176 218,168 Q195,140 183,128"/> 
            <glyph glyph-name="练" unicode="&#x7EC3;" horiz-adv-x="251" d=" M94,162 L94,182 L138,182 Q143,196 147,211 L171,208 L161,182 L243,182 L243,162 L154,162 Q152,158 149,149 Q145,140 143,135 L189,135 L189,83 L241,83 L241,63 L189,63 L189,4 Q190,-24 162,-25 Q147,-25 134,-25 Q134,-19 131,-6 Q134,-15 130,-3 Q144,-3 154,-3 Q168,-4 167,10 L167,63 L99,63 L99,82 Q107,98 114,116 L95,116 L95,135 L121,135 Q127,149 131,162 M16,40 L9,59 Q17,64 24,73 Q35,88 49,111 Q45,111 38,110 Q19,110 12,108 L6,128 Q14,136 17,143 Q29,162 51,211 L73,205 Q52,162 32,130 Q38,130 47,131 Q56,131 60,131 Q62,134 65,141 Q68,144 74,156 L94,148 Q65,98 40,64 L87,70 Q86,62 86,49 Q80,48 71,48 Q46,46 36,44 Q26,41 16,40 M10,-10 L6,11 Q46,17 89,24 Q89,21 89,14 Q88,6 88,2 Q49,-2 10,-10 M104,-16 Q97,-9 87,-3 Q105,15 127,50 L146,40 Q131,15 104,-16 M232,-13 Q228,-5 218,9 Q206,29 200,39 L217,49 Q230,30 251,-2 M167,116 L136,116 Q134,111 130,101 Q124,89 122,83 L167,83"/> 
            <glyph glyph-name="络" unicode="&#x7EDC;" horiz-adv-x="251" d=" M243,71 Q197,83 171,99 Q135,79 95,68 Q94,73 89,82 Q87,87 86,89 Q124,98 153,113 Q138,126 126,145 Q116,133 105,121 L92,139 Q124,172 141,211 L164,207 Q159,197 153,186 L236,186 L236,165 Q216,133 191,112 Q215,100 251,93 Q246,82 243,71 M109,-29 L109,65 L232,65 L232,-29 L209,-29 L209,-15 L131,-15 L131,-29 M12,109 L6,130 Q13,136 18,144 Q36,171 53,211 L76,204 Q49,155 32,131 L61,132 Q65,137 71,149 Q76,157 78,161 L98,151 Q82,125 46,73 Q43,68 41,66 Q43,66 47,66 Q74,68 86,70 Q86,67 86,60 Q85,54 85,50 Q80,50 70,49 Q47,47 37,45 Q31,44 22,43 Q25,43 18,42 L10,63 Q16,66 25,77 Q24,76 26,78 Q30,85 39,98 Q46,107 49,112 Q45,112 38,111 Q20,111 12,109 M131,46 L131,3 L209,3 L209,46 M10,-13 L6,8 Q18,9 45,13 Q76,17 90,19 Q90,16 90,9 Q89,2 89,0 Q83,-1 71,-3 Q51,-6 10,-13 M211,166 L141,166 L139,163 Q153,140 172,125 Q193,140 211,166"/> 
            <glyph glyph-name="网" unicode="&#x7F51;" horiz-adv-x="235" d=" M21,-27 L21,197 L234,197 L234,9 Q235,-25 203,-25 Q190,-26 165,-26 Q165,-25 165,-23 Q164,-15 161,-3 Q166,-3 177,-4 Q188,-4 192,-4 Q212,-5 211,12 L211,176 L44,176 L44,-27 M186,155 L205,147 Q199,133 185,104 Q179,90 176,83 Q191,56 205,27 L186,16 Q176,39 165,60 Q161,52 153,36 Q144,19 139,10 L120,22 Q131,39 148,72 Q151,79 153,82 Q140,109 125,133 Q116,110 103,86 L127,39 L108,28 Q104,36 97,53 Q94,60 92,63 Q77,35 63,12 Q61,14 55,18 Q49,22 46,24 Q64,53 81,85 Q76,95 66,115 Q55,135 50,145 L67,155 Q70,150 75,141 Q80,132 92,108 Q104,132 113,155 L132,147 L131,145 L139,150 Q141,147 144,141 Q152,129 164,105 Q170,117 180,140 Q184,150 186,155"/> 
            <glyph glyph-name="者" unicode="&#x8005;" horiz-adv-x="248" d=" M32,163 L32,182 L98,182 L98,210 L121,210 L121,182 L179,182 L179,163 L121,163 L121,134 L151,134 Q187,161 216,195 L235,182 Q210,155 185,134 L248,134 L248,114 L158,114 Q139,100 116,88 L214,88 L214,-29 L191,-29 L191,-16 L74,-16 L74,-29 L51,-29 L51,56 Q34,49 13,41 Q9,55 5,63 Q76,86 121,114 L9,114 L9,134 L98,134 L98,163 M74,26 L74,1 L191,1 L191,26 M191,69 L79,69 L74,67 L74,44 L191,44"/> 
            <glyph glyph-name="能" unicode="&#x80FD;" horiz-adv-x="247" d=" M19,-27 L19,115 L120,115 L120,0 Q121,-25 96,-25 Q84,-25 69,-25 Q68,-14 65,-6 Q77,-6 87,-6 Q101,-6 100,2 L100,21 L40,21 L40,-27 M176,-23 Q144,-24 145,6 L145,87 L167,87 L167,52 Q198,64 232,83 L245,65 Q219,51 167,30 L167,10 Q167,-4 183,-3 L206,-3 Q221,-3 224,8 Q226,17 227,34 Q232,32 242,28 Q246,27 247,27 Q246,17 244,3 Q243,0 243,0 Q238,-24 210,-23 M176,100 Q144,99 145,131 L145,209 L167,209 L167,169 Q205,184 229,199 L242,182 Q200,161 167,148 L167,135 Q166,119 183,120 L205,120 Q221,120 223,133 Q226,142 227,158 Q231,157 237,155 Q244,153 247,152 Q246,139 242,124 Q238,100 209,100 M122,124 Q120,127 116,133 Q113,136 112,138 Q70,137 34,134 Q23,134 14,131 L6,151 Q15,157 22,164 Q42,185 59,212 L82,205 Q60,177 37,153 Q51,154 85,155 Q79,155 98,156 L79,178 L95,188 Q115,167 140,137 M40,98 L40,76 L100,76 L100,98 M40,59 L40,38 L100,38 L100,59"/> 
            <glyph glyph-name="获" unicode="&#x83B7;" horiz-adv-x="249" d=" M100,78 L100,99 L151,99 Q152,111 152,141 L175,141 Q175,111 174,99 L245,99 L245,78 L176,78 Q189,20 249,-7 Q246,-11 239,-21 Q236,-26 234,-28 Q178,4 165,53 Q156,4 102,-30 Q99,-25 91,-15 Q87,-12 86,-10 Q144,21 149,78 M16,68 L5,86 Q27,96 43,108 Q38,115 24,130 Q20,135 18,137 L34,149 Q49,134 60,121 Q73,131 86,146 L102,132 Q86,116 71,104 Q90,71 89,16 Q90,-25 49,-25 Q37,-25 25,-25 Q24,-20 22,-10 Q21,-7 21,-5 Q34,-6 44,-6 Q68,-7 68,18 Q68,36 66,51 Q47,28 17,8 Q15,12 10,20 Q7,24 6,26 Q38,45 61,73 Q58,82 54,91 Q37,80 16,68 M9,165 L9,185 L77,185 L77,210 L100,210 L100,185 L161,185 L161,210 L184,210 L184,185 L248,185 L248,165 L184,165 L184,151 L161,151 L161,165 L100,165 L100,151 L77,151 L77,165 M218,103 Q210,111 192,125 Q189,128 187,129 L200,142 Q207,137 219,128 Q228,121 232,118"/> 
            <glyph glyph-name="蓝" unicode="&#x84DD;" horiz-adv-x="248" d=" M8,-21 L8,-1 L35,-1 L35,60 L222,60 L222,-1 L248,-1 L248,-21 M8,172 L8,191 L76,191 L76,210 L99,210 L99,191 L159,191 L159,210 L181,210 L181,191 L247,191 L247,172 L181,172 L181,158 L159,158 L159,172 L99,172 L99,158 L76,158 L76,172 M129,72 Q121,78 111,85 Q136,116 146,152 L169,149 Q166,140 163,133 L243,133 L243,114 L155,114 Q145,93 129,72 M81,72 L81,151 L103,151 L103,72 M29,74 L29,145 L50,145 L50,74 M199,41 L165,41 L165,-1 L199,-1 M112,41 L112,-1 L145,-1 L145,41 M58,41 L58,-1 L91,-1 L91,41 M205,66 Q202,68 197,72 Q176,88 162,97 L175,110 Q187,103 208,88 Q215,84 219,81"/> 
            <glyph glyph-name="行" unicode="&#x884C;" horiz-adv-x="249" d=" M99,96 L99,119 L249,119 L249,96 L206,96 L206,12 Q207,-24 170,-24 Q153,-25 131,-25 Q128,-13 126,-1 Q131,-1 141,-1 Q154,-2 161,-2 Q183,-3 182,16 L182,96 M15,42 Q11,54 6,66 Q43,97 73,144 L92,131 Q79,112 67,96 L67,-29 L44,-29 L44,70 Q30,55 15,42 M112,171 L112,194 L237,194 L237,171 M21,126 Q14,141 10,148 Q47,177 71,210 L91,197 Q55,152 21,126"/> 
            <glyph glyph-name="要" unicode="&#x8981;" horiz-adv-x="249" d=" M14,181 L14,199 L242,199 L242,181 L169,181 L169,157 L231,157 L231,92 L25,92 L25,157 L86,157 L86,181 M7,51 L7,69 L82,69 Q90,79 97,91 L122,88 L109,69 L249,69 L249,51 L199,51 Q185,27 164,11 L237,-7 L228,-28 Q184,-13 142,0 Q102,-20 21,-29 Q20,-27 18,-22 Q15,-12 13,-8 Q76,-2 110,7 Q79,17 46,26 Q58,39 67,51 M136,19 Q157,30 172,51 L95,51 Q88,42 80,34 M210,139 L169,139 L169,110 L210,110 M46,139 L46,110 L86,110 L86,139 M108,139 L108,110 L148,110 L148,139 M108,181 L108,157 L148,157 L148,181"/> 
            <glyph glyph-name="计" unicode="&#x8BA1;" horiz-adv-x="249" d=" M87,105 L87,128 L156,128 L156,210 L180,210 L180,128 L249,128 L249,105 L180,105 L180,-29 L156,-29 L156,105 M45,-26 L29,-7 Q38,1 38,15 L38,106 L7,106 L7,128 L61,128 L61,17 Q64,19 71,24 Q92,38 101,45 Q103,31 108,19 Q107,18 105,17 Q72,-2 57,-14 Q54,-17 49,-22 Q46,-25 45,-26 M65,152 Q61,157 52,166 Q35,185 26,194 L44,208 Q65,188 85,167"/> 
            <glyph glyph-name="让" unicode="&#x8BA9;" horiz-adv-x="248" d=" M87,-15 L87,6 L146,6 L146,208 L170,208 L170,138 L238,138 L238,115 L170,115 L170,6 L248,6 L248,-15 M45,-18 L28,0 Q37,9 37,25 L37,105 L7,105 L7,127 L60,127 L60,28 Q64,31 72,38 Q88,51 96,58 Q96,57 97,54 Q99,46 103,33 Q82,17 59,-2 Q51,-9 45,-18 M67,148 Q48,172 28,191 L46,205 Q66,185 86,164"/> 
            <glyph glyph-name="训" unicode="&#x8BAD;" horiz-adv-x="237" d=" M86,-30 Q76,-23 66,-15 Q89,8 95,30 Q101,52 101,104 L101,206 L123,206 L123,104 Q123,47 116,22 Q109,-3 86,-30 M215,-26 L215,206 L237,206 L237,-26 M158,-11 L158,196 L180,196 L180,-11 M39,-10 L24,5 Q33,14 32,30 L32,107 L6,107 L6,129 L54,129 L54,36 L78,59 Q79,57 80,52 Q82,42 84,36 Q73,26 52,3 Q49,1 44,-5 Q41,-8 39,-10 M55,150 Q51,155 41,168 Q27,185 21,194 L40,205 Q43,202 48,195 Q67,173 75,163"/> 
            <glyph glyph-name="设" unicode="&#x8BBE;" horiz-adv-x="249" d=" M77,-29 Q74,-23 64,-8 Q116,5 140,19 Q116,40 96,81 L100,83 L87,83 L87,104 L228,104 L228,81 Q203,38 178,19 Q206,3 248,-5 Q240,-16 236,-26 Q187,-13 159,4 Q126,-15 77,-29 M92,112 Q90,114 85,120 Q79,126 76,129 Q112,144 109,176 L109,199 L214,199 L214,156 Q213,143 227,144 L249,144 L246,122 L218,122 Q191,122 191,147 L191,178 L131,178 L131,171 Q134,133 92,112 M42,-13 L27,2 Q33,11 33,22 L33,108 L7,108 L7,129 L56,129 L56,31 Q65,40 81,58 Q83,53 86,45 Q88,39 89,36 Q79,27 57,3 Q73,21 54,0 Q47,-5 42,-13 M119,83 Q137,50 159,32 Q184,51 202,83 M57,151 Q52,158 40,173 Q28,187 22,194 L41,206 Q47,200 60,186 Q72,172 78,165"/> 
            <glyph glyph-name="调" unicode="&#x8C03;" horiz-adv-x="239" d=" M77,-29 L56,-17 Q74,5 79,25 Q84,45 84,86 L84,198 L238,198 L238,3 Q239,-25 210,-26 Q199,-26 178,-26 L173,-4 Q189,-5 201,-5 Q218,-6 217,8 L217,179 L105,179 L105,87 Q105,42 99,19 Q94,-3 77,-29 M123,7 L123,73 L198,73 L198,7 M36,-8 L22,6 Q29,14 29,27 L29,113 L7,113 L7,135 L51,135 L51,37 Q53,39 58,45 Q65,55 69,59 Q71,46 74,36 Q70,31 61,20 Q52,10 47,4 Q41,-2 36,-8 M121,133 L121,151 L151,151 L151,171 L171,171 L171,151 L201,151 L201,133 L171,133 L171,111 L207,111 L207,93 L115,93 L115,111 L151,111 L151,133 M49,154 Q32,178 17,196 L35,208 Q37,206 41,201 Q61,178 69,167 M142,55 L142,25 L178,25 L178,55"/> 
            <glyph glyph-name="起" unicode="&#x8D77;" horiz-adv-x="249" d=" M16,157 L16,177 L57,177 L57,210 L79,210 L79,177 L118,177 L118,157 L79,157 L79,123 L124,123 L124,103 L88,103 L88,65 L122,65 L122,46 L88,46 L88,2 Q105,-1 130,-1 Q157,-2 227,-1 Q244,-1 249,-1 Q243,-14 242,-22 Q189,-22 126,-22 Q59,-22 39,17 Q34,-5 21,-29 Q19,-26 12,-20 Q7,-16 5,-14 Q26,18 24,88 L44,87 Q44,64 43,46 Q54,22 67,13 L67,103 L8,103 L8,123 L57,123 L57,157 M172,22 Q136,21 137,54 L137,129 L209,129 L209,175 L133,175 L133,196 L231,196 L231,108 L159,108 L159,59 Q158,42 177,43 L200,43 Q219,42 221,58 Q225,72 225,86 Q236,82 246,79 Q245,66 241,50 Q237,21 204,22"/> 
            <glyph glyph-name="越" unicode="&#x8D8A;" horiz-adv-x="249" d=" M16,157 L16,177 L54,177 L54,210 L76,210 L76,177 L109,177 L109,157 L76,157 L76,123 L114,123 L114,103 L83,103 L83,65 L110,65 L110,45 L83,45 L83,2 Q101,-1 130,-2 Q230,-2 249,-1 Q243,-14 242,-22 Q234,-22 211,-22 Q151,-23 126,-22 Q57,-22 37,17 Q34,-2 20,-29 Q17,-26 9,-18 Q6,-15 5,-14 Q25,18 23,88 L43,87 Q43,80 42,66 Q42,52 41,46 Q50,26 62,14 L62,103 L8,103 L8,123 L54,123 L54,157 M128,36 L116,53 Q123,59 123,74 L123,166 L169,166 Q168,187 168,210 L188,210 Q188,189 189,166 L245,166 L245,146 L190,146 Q191,118 197,87 Q205,100 218,130 L236,122 Q221,90 204,63 Q205,58 210,49 Q212,44 213,42 Q217,35 221,35 Q226,36 227,45 Q231,61 231,78 Q239,73 247,71 Q246,55 242,35 Q237,14 222,13 Q204,13 192,39 Q192,40 191,40 Q190,42 190,44 Q172,24 150,3 Q148,4 145,8 Q137,14 134,16 Q162,40 182,66 Q173,96 170,146 L142,146 L142,77 Q146,79 163,96 Q163,94 164,90 Q166,83 168,76 Q148,58 138,47 Q134,44 128,36 M221,170 Q217,176 205,192 Q201,197 199,199 L212,207 Q228,191 236,180"/> 
            <glyph glyph-name="跟" unicode="&#x8DDF;" horiz-adv-x="249" d=" M237,-22 Q171,9 156,78 L136,78 L136,0 Q143,3 159,10 Q170,15 176,18 Q176,13 177,5 Q177,0 177,-3 Q169,-6 153,-13 Q142,-18 136,-20 Q126,-25 120,-29 L108,-12 Q115,-4 115,7 L115,198 L230,198 L230,78 L177,78 Q183,59 191,44 Q194,46 200,50 Q214,59 232,72 L245,55 Q242,53 236,49 Q226,43 202,29 Q220,10 249,-2 M20,118 L20,198 L95,198 L95,118 L73,118 L73,81 L100,81 L100,62 L73,62 L73,14 Q78,15 86,17 Q95,18 99,19 Q99,4 100,-1 Q54,-8 10,-17 L6,4 Q8,4 12,5 Q16,5 18,5 L18,97 L35,97 L35,8 L54,11 L54,118 M136,178 L136,147 L209,147 L209,178 M136,99 L209,99 L209,129 L136,129 M40,179 L40,137 L77,137 L77,179"/> 
            <glyph glyph-name="轻" unicode="&#x8F7B;" horiz-adv-x="250" d=" M8,157 L8,177 L37,177 Q42,195 46,211 L69,208 Q65,193 59,177 L105,177 L105,157 L53,157 Q48,141 37,111 Q34,101 32,97 L58,97 L58,140 L77,140 L77,97 L101,97 L101,77 L77,77 L77,45 L106,48 Q105,42 105,27 L77,24 L77,-29 L55,-29 L55,22 L8,16 L7,38 L55,42 L55,77 L11,77 L11,98 Q19,120 31,157 M114,56 L114,77 L236,77 L236,56 L187,56 L187,1 L249,1 L249,-18 L101,-18 L101,1 L164,1 L164,56 M236,86 Q215,101 182,122 Q154,101 115,85 Q110,94 104,105 Q172,129 200,174 L116,174 L116,195 L226,195 L226,173 Q212,151 197,136 Q225,120 250,105"/> 
            <glyph glyph-name="都" unicode="&#x90FD;" horiz-adv-x="249" d=" M18,160 L18,179 L57,179 L57,210 L78,210 L78,179 L111,179 L111,160 L78,160 L78,133 L92,133 Q115,157 132,187 L150,177 Q134,152 118,133 L146,133 L146,114 L100,114 Q88,101 73,89 L132,89 L132,-26 L111,-26 L111,-12 L52,-12 L52,-26 L31,-26 L31,60 L12,48 Q11,51 9,57 Q6,65 4,68 Q42,88 72,114 L8,114 L8,133 L57,133 L57,160 M157,-29 L157,197 L243,197 L243,175 L218,105 Q249,78 248,44 Q249,3 213,1 Q201,1 190,1 Q189,5 188,13 Q186,21 185,24 Q194,24 206,24 Q227,23 226,46 Q226,70 195,103 L220,176 L179,176 L179,-29 M52,29 L52,4 L111,4 L111,29 M52,71 L52,46 L111,46 L111,71"/> 
            <glyph glyph-name="里" unicode="&#x91CC;" horiz-adv-x="248" d=" M22,29 L22,49 L116,49 L116,76 L28,76 L28,198 L227,198 L227,76 L139,76 L139,49 L234,49 L234,29 L139,29 L139,1 L248,1 L248,-17 L7,-17 L7,1 L116,1 L116,29 M139,128 L139,95 L204,95 L204,128 M52,128 L52,95 L116,95 L116,128 M204,178 L139,178 L139,146 L204,146 M52,178 L52,146 L116,146 L116,178"/> 
            <glyph glyph-name="长" unicode="&#x957F;" horiz-adv-x="247" d=" M232,-19 Q145,13 118,88 L73,88 L73,4 Q107,19 133,29 Q133,16 133,4 Q108,-3 77,-18 Q65,-22 55,-28 L41,-8 Q50,0 49,12 L49,88 L9,88 L9,110 L49,110 L49,209 L73,209 L73,110 L245,110 L245,88 L142,88 Q168,26 247,2 M103,125 Q99,133 91,145 Q155,168 210,200 L224,181 Q170,151 103,125"/> 
            <glyph glyph-name="间" unicode="&#x95F4;" horiz-adv-x="240" d=" M75,19 L75,146 L180,146 L180,19 M165,-27 Q164,-16 159,-4 Q166,-4 177,-5 Q188,-5 194,-5 Q216,-5 216,13 L216,176 L92,176 L92,198 L239,198 L239,9 Q240,-26 205,-27 M18,-28 L18,155 L41,155 L41,-28 M97,73 L97,39 L158,39 L158,73 M97,126 L97,93 L158,93 L158,126 M57,160 Q40,180 25,197 L44,210 Q61,194 77,175"/> 
            <glyph glyph-name="限" unicode="&#x9650;" horiz-adv-x="250" d=" M237,-25 Q166,7 150,78 L130,78 L130,1 Q149,10 170,18 Q170,6 170,-3 Q152,-9 129,-20 Q122,-23 112,-28 L101,-11 Q108,-1 108,8 L108,199 L227,199 L227,78 L171,78 Q178,57 188,41 Q212,56 231,71 L244,54 Q225,41 199,27 Q216,8 250,-4 Q243,-15 237,-25 M17,-29 L17,199 L91,199 L91,178 L72,111 Q93,84 92,50 Q93,13 64,9 Q61,9 56,9 Q51,8 47,8 Q45,22 41,31 Q50,31 57,31 Q72,31 72,54 Q72,82 51,107 L71,178 L38,178 L38,-29 M130,98 L206,98 L206,129 L130,129 M130,178 L130,148 L206,148 L206,178"/> 
            <glyph glyph-name="雨" unicode="&#x96E8;" horiz-adv-x="247" d=" M116,-24 L116,126 L44,126 L44,-26 L21,-26 L21,147 L116,147 L116,177 L8,177 L8,198 L247,198 L247,177 L139,177 L139,147 L234,147 L234,6 Q236,-24 202,-25 Q190,-25 169,-25 L164,-3 Q173,-4 194,-4 Q212,-5 211,9 L211,126 L139,126 L139,-24 M92,11 Q73,28 50,41 L63,57 Q86,43 106,29 M191,66 Q170,81 147,93 L159,109 Q183,97 204,83 M188,13 Q178,21 152,37 Q148,40 146,41 L158,57 Q162,54 170,50 Q191,38 201,31 M94,66 Q74,81 53,94 L66,110 Q76,104 94,92 Q103,86 108,83"/> 
            <glyph glyph-name="需" unicode="&#x9700;" horiz-adv-x="248" d=" M8,69 L8,86 L248,86 L248,69 L134,69 L128,50 L230,50 L230,0 Q231,-24 204,-25 Q188,-25 180,-25 Q178,-17 176,-7 Q186,-7 194,-7 Q209,-8 208,4 L208,33 L167,33 L167,-21 L147,-21 L147,33 L108,33 L108,-22 L88,-22 L88,33 L49,33 L49,-27 L26,-27 L26,50 L105,50 L110,69 M26,183 L26,198 L229,198 L229,183 L139,183 L139,167 L241,167 L241,120 L219,120 L219,151 L139,151 L139,97 L116,97 L116,151 L37,151 L37,120 L15,120 L15,167 L116,167 L116,183 M52,125 L52,137 L103,137 L103,125 M153,125 L153,137 L204,137 L204,125 M52,101 L52,112 L103,112 L103,101 M153,101 L153,112 L204,112 L204,101"/> 
            <glyph glyph-name="音" unicode="&#x97F3;" horiz-adv-x="247" d=" M36,-29 L36,91 L218,91 L218,-28 L195,-28 L195,-15 L59,-15 L59,-29 M19,164 L19,184 L120,184 Q118,187 115,194 Q111,203 109,207 L134,212 Q135,209 138,203 Q143,192 146,185 L142,184 L237,184 L237,164 L177,164 L197,157 Q188,145 178,132 L247,132 L247,113 L8,113 L8,132 L77,132 Q68,145 59,157 L79,164 M59,28 L59,1 L195,1 L195,28 M59,72 L59,45 L195,45 L195,72 M103,135 L96,132 L151,132 Q163,149 172,164 L82,164 Q94,149 103,135"/> 
            <glyph glyph-name="香" unicode="&#x9999;" horiz-adv-x="248" d=" M44,-28 L44,82 Q41,81 35,79 Q23,75 17,72 Q14,82 7,92 Q66,107 102,135 L14,135 L14,153 L117,153 L117,178 Q101,177 82,177 Q65,177 35,177 Q34,188 32,195 Q105,195 220,201 L223,183 Q198,181 139,179 L139,153 L242,153 L242,135 L154,135 Q185,109 248,95 Q242,84 238,75 Q169,95 139,126 L139,91 L117,91 L117,126 Q89,99 46,83 L211,83 L211,-28 L189,-28 L189,-18 L66,-18 L66,-28 M66,24 L66,0 L189,0 L189,24 M66,65 L66,40 L189,40 L189,65"/> 
            <glyph glyph-name="，" unicode="&#xFF0C;" horiz-adv-x="78" d=" M52,-37 L43,-28 Q61,-15 62,11 L45,11 L45,44 L78,44 Q78,36 78,15 Q78,-20 52,-37"/> 
            <glyph glyph-name="？" unicode="&#xFF1F;" horiz-adv-x="122" d=" M28,127 L6,127 Q6,190 67,189 Q120,187 122,137 Q122,119 97,97 Q73,75 73,59 L73,50 L52,50 L52,63 Q52,82 77,106 Q96,125 98,137 Q97,164 69,167 Q27,169 28,127 M73,29 L73,5 L52,5 L52,29"/> 
        </font>
</defs>
</svg>
